<svg width="60" height="64" viewBox="0 0 60 64" fill="none" xmlns="http://www.w3.org/2000/svg">
<g id="Group">
<path id="Vector" d="M45.4238 21.8956C45.9667 20.8101 45.7096 19.5519 44.7667 18.6884L25.3381 0.925181C24.6952 0.333075 23.7952 1.52588e-05 22.8524 1.52588e-05C21.9095 1.52588e-05 21.0095 0.333075 20.3667 0.925181L0.938054 18.6884C-0.00480457 19.5519 -0.261948 20.8101 0.28091 21.8956C0.823768 22.9811 2.05234 23.6843 3.42377 23.6843H13.7095V59.2106C13.7095 61.394 15.7524 63.158 18.2809 63.158H27.4238C29.9524 63.158 31.9953 61.394 31.9953 59.2106V23.6843H42.281C43.6524 23.6843 44.881 22.9811 45.4238 21.8956Z" fill="#1E2026"/>
<path id="Vector_2" d="M59.8603 42.5268C60.1317 41.984 60.0031 41.3549 59.5316 40.9232L49.8153 32.0416C49.4938 31.7455 49.0437 31.579 48.5721 31.579C48.1006 31.579 47.6505 31.7455 47.329 32.0416L37.6127 40.9232C37.1412 41.3549 37.0126 41.984 37.284 42.5268C37.5555 43.0696 38.1699 43.4211 38.8558 43.4211H43.9997V61.1843C43.9997 62.276 45.0214 63.158 46.2859 63.158H50.8583C52.1229 63.158 53.1445 62.276 53.1445 61.1843V43.4211H58.2885C58.9743 43.4211 59.5888 43.0696 59.8603 42.5268Z" fill="#1E2026"/>
</g>
</svg>
