<svg width="275" height="360" viewBox="0 0 275 360" fill="none" xmlns="http://www.w3.org/2000/svg">
<rect x="2.5" y="2.5" width="270" height="355" rx="12.5" fill="#ECECEC"/>
<rect x="2.5" y="2.5" width="270" height="355" rx="12.5" stroke="#F7D034" stroke-width="5"/>
<path d="M101.628 47L109.236 30.2H111.612L119.244 47H116.724L109.932 31.544H110.892L104.1 47H101.628ZM104.868 42.8L105.516 40.88H114.972L115.668 42.8H104.868ZM128.158 47.144C127.102 47.144 126.134 46.904 125.254 46.424C124.39 45.928 123.694 45.2 123.166 44.24C122.654 43.28 122.398 42.08 122.398 40.64C122.398 39.2 122.646 38 123.142 37.04C123.654 36.08 124.342 35.36 125.206 34.88C126.086 34.4 127.07 34.16 128.158 34.16C129.406 34.16 130.51 34.432 131.47 34.976C132.43 35.52 133.19 36.28 133.75 37.256C134.31 38.216 134.59 39.344 134.59 40.64C134.59 41.936 134.31 43.072 133.75 44.048C133.19 45.024 132.43 45.784 131.47 46.328C130.51 46.872 129.406 47.144 128.158 47.144ZM121.414 51.656V34.28H123.622V37.712L123.478 40.664L123.718 43.616V51.656H121.414ZM127.966 45.128C128.782 45.128 129.51 44.944 130.15 44.576C130.806 44.208 131.318 43.688 131.686 43.016C132.07 42.328 132.262 41.536 132.262 40.64C132.262 39.728 132.07 38.944 131.686 38.288C131.318 37.616 130.806 37.096 130.15 36.728C129.51 36.36 128.782 36.176 127.966 36.176C127.166 36.176 126.438 36.36 125.782 36.728C125.142 37.096 124.63 37.616 124.246 38.288C123.878 38.944 123.694 39.728 123.694 40.64C123.694 41.536 123.878 42.328 124.246 43.016C124.63 43.688 125.142 44.208 125.782 44.576C126.438 44.944 127.166 45.128 127.966 45.128ZM144.518 47.144C143.462 47.144 142.494 46.904 141.614 46.424C140.75 45.928 140.054 45.2 139.526 44.24C139.014 43.28 138.758 42.08 138.758 40.64C138.758 39.2 139.006 38 139.502 37.04C140.014 36.08 140.702 35.36 141.566 34.88C142.446 34.4 143.43 34.16 144.518 34.16C145.766 34.16 146.87 34.432 147.83 34.976C148.79 35.52 149.55 36.28 150.11 37.256C150.67 38.216 150.95 39.344 150.95 40.64C150.95 41.936 150.67 43.072 150.11 44.048C149.55 45.024 148.79 45.784 147.83 46.328C146.87 46.872 145.766 47.144 144.518 47.144ZM137.774 51.656V34.28H139.982V37.712L139.838 40.664L140.078 43.616V51.656H137.774ZM144.326 45.128C145.142 45.128 145.87 44.944 146.51 44.576C147.166 44.208 147.678 43.688 148.046 43.016C148.43 42.328 148.622 41.536 148.622 40.64C148.622 39.728 148.43 38.944 148.046 38.288C147.678 37.616 147.166 37.096 146.51 36.728C145.87 36.36 145.142 36.176 144.326 36.176C143.526 36.176 142.798 36.36 142.142 36.728C141.502 37.096 140.99 37.616 140.606 38.288C140.238 38.944 140.054 39.728 140.054 40.64C140.054 41.536 140.238 42.328 140.606 43.016C140.99 43.688 141.502 44.208 142.142 44.576C142.798 44.944 143.526 45.128 144.326 45.128ZM154.133 47V29.192H156.437V47H154.133ZM166.5 47.144C165.14 47.144 163.94 46.864 162.9 46.304C161.876 45.744 161.076 44.976 160.5 44C159.94 43.024 159.66 41.904 159.66 40.64C159.66 39.376 159.932 38.256 160.476 37.28C161.036 36.304 161.796 35.544 162.756 35C163.732 34.44 164.828 34.16 166.044 34.16C167.276 34.16 168.364 34.432 169.308 34.976C170.252 35.52 170.988 36.288 171.516 37.28C172.06 38.256 172.332 39.4 172.332 40.712C172.332 40.808 172.324 40.92 172.308 41.048C172.308 41.176 172.3 41.296 172.284 41.408H161.46V39.752H171.084L170.148 40.328C170.164 39.512 169.996 38.784 169.644 38.144C169.292 37.504 168.804 37.008 168.18 36.656C167.572 36.288 166.86 36.104 166.044 36.104C165.244 36.104 164.532 36.288 163.908 36.656C163.284 37.008 162.796 37.512 162.444 38.168C162.092 38.808 161.916 39.544 161.916 40.376V40.76C161.916 41.608 162.108 42.368 162.492 43.04C162.892 43.696 163.444 44.208 164.148 44.576C164.852 44.944 165.66 45.128 166.572 45.128C167.324 45.128 168.004 45 168.612 44.744C169.236 44.488 169.78 44.104 170.244 43.592L171.516 45.08C170.94 45.752 170.22 46.264 169.356 46.616C168.508 46.968 167.556 47.144 166.5 47.144Z" fill="black"/>
<path d="M91.4809 90.656V68.192H93.6169V90.656H91.4809ZM97.7888 75.68L97.6448 69.2H99.6608L99.4928 75.68H97.7888ZM107.316 86.144C105.764 86.144 104.548 85.792 103.668 85.088C102.804 84.368 102.372 83.44 102.372 82.304C102.372 81.664 102.532 81.072 102.852 80.528C103.188 79.984 103.724 79.544 104.46 79.208C105.212 78.872 106.22 78.704 107.484 78.704H111.492V80.36H107.58C106.444 80.36 105.668 80.552 105.252 80.936C104.852 81.304 104.652 81.744 104.652 82.256C104.652 82.912 104.9 83.432 105.396 83.816C105.908 84.184 106.612 84.368 107.508 84.368C108.644 84.368 109.532 84.08 110.172 83.504C110.812 82.912 111.132 82.136 111.132 81.176V78.224C111.132 77.248 110.844 76.496 110.268 75.968C109.708 75.424 108.868 75.152 107.748 75.152C106.98 75.152 106.236 75.28 105.516 75.536C104.796 75.776 104.188 76.104 103.692 76.52L102.732 74.792C103.388 74.264 104.172 73.864 105.084 73.592C106.012 73.304 106.972 73.16 107.964 73.16C109.436 73.16 110.604 73.456 111.468 74.048C112.332 74.624 112.884 75.48 113.124 76.616L112.02 76.472C112.516 75.448 113.244 74.64 114.204 74.048C115.18 73.456 116.3 73.16 117.564 73.16C118.476 73.16 119.316 73.32 120.084 73.64C120.868 73.944 121.54 74.384 122.1 74.96C122.676 75.536 123.116 76.216 123.42 77C123.74 77.784 123.9 78.64 123.9 79.568C123.9 79.728 123.892 79.872 123.876 80C123.876 80.128 123.86 80.248 123.828 80.36H112.98V78.704H122.628L121.668 79.328C121.668 78.416 121.476 77.648 121.092 77.024C120.708 76.4 120.196 75.928 119.556 75.608C118.932 75.272 118.26 75.104 117.54 75.104C116.852 75.104 116.188 75.272 115.548 75.608C114.924 75.928 114.412 76.408 114.012 77.048C113.628 77.672 113.436 78.448 113.436 79.376V79.76C113.436 80.608 113.628 81.368 114.012 82.04C114.396 82.696 114.932 83.208 115.62 83.576C116.324 83.944 117.14 84.128 118.068 84.128C118.82 84.128 119.5 84 120.108 83.744C120.716 83.488 121.26 83.104 121.74 82.592L123.036 84.08C122.444 84.768 121.716 85.288 120.852 85.64C120.004 85.976 119.052 86.144 117.996 86.144C117.02 86.144 116.1 85.992 115.236 85.688C114.372 85.384 113.62 84.912 112.98 84.272C112.34 83.632 111.844 82.808 111.492 81.8L112.98 81.848C112.788 82.92 112.396 83.776 111.804 84.416C111.228 85.04 110.54 85.488 109.74 85.76C108.956 86.016 108.148 86.144 107.316 86.144ZM133.842 86.144C132.786 86.144 131.818 85.904 130.938 85.424C130.074 84.928 129.378 84.2 128.85 83.24C128.338 82.28 128.082 81.08 128.082 79.64C128.082 78.2 128.33 77 128.826 76.04C129.338 75.08 130.026 74.36 130.89 73.88C131.77 73.4 132.754 73.16 133.842 73.16C135.09 73.16 136.194 73.432 137.154 73.976C138.114 74.52 138.874 75.28 139.434 76.256C139.994 77.216 140.274 78.344 140.274 79.64C140.274 80.936 139.994 82.072 139.434 83.048C138.874 84.024 138.114 84.784 137.154 85.328C136.194 85.872 135.09 86.144 133.842 86.144ZM127.098 90.656V73.28H129.306V76.712L129.162 79.664L129.402 82.616V90.656H127.098ZM133.65 84.128C134.466 84.128 135.194 83.944 135.834 83.576C136.49 83.208 137.002 82.688 137.37 82.016C137.754 81.328 137.946 80.536 137.946 79.64C137.946 78.728 137.754 77.944 137.37 77.288C137.002 76.616 136.49 76.096 135.834 75.728C135.194 75.36 134.466 75.176 133.65 75.176C132.85 75.176 132.122 75.36 131.466 75.728C130.826 76.096 130.314 76.616 129.93 77.288C129.562 77.944 129.378 78.728 129.378 79.64C129.378 80.536 129.562 81.328 129.93 82.016C130.314 82.688 130.826 83.208 131.466 83.576C132.122 83.944 132.85 84.128 133.65 84.128ZM146.409 90.656C145.497 89.2 144.793 87.52 144.297 85.616C143.801 83.696 143.553 81.632 143.553 79.424C143.553 77.216 143.801 75.152 144.297 73.232C144.793 71.296 145.497 69.616 146.409 68.192H148.593C147.633 69.888 146.929 71.664 146.481 73.52C146.033 75.36 145.809 77.328 145.809 79.424C145.809 81.52 146.033 83.496 146.481 85.352C146.929 87.192 147.633 88.96 148.593 90.656H146.409ZM156.199 73.16C157.575 73.16 158.775 73.44 159.799 74C160.823 74.544 161.615 75.304 162.175 76.28C162.751 77.256 163.039 78.376 163.039 79.64C163.039 80.904 162.759 82.024 162.199 83C161.655 83.976 160.903 84.744 159.943 85.304C158.983 85.864 157.887 86.144 156.655 86.144C155.439 86.144 154.351 85.872 153.391 85.328C152.447 84.768 151.703 84 151.159 83.024C150.631 82.032 150.367 80.888 150.367 79.592C150.367 79.48 150.367 79.36 150.367 79.232C150.383 79.104 150.399 78.984 150.415 78.872H161.239V80.552H151.639L152.551 79.976C152.551 80.792 152.727 81.52 153.079 82.16C153.431 82.784 153.911 83.28 154.519 83.648C155.143 84 155.855 84.176 156.655 84.176C157.471 84.176 158.191 84 158.815 83.648C159.439 83.28 159.919 82.776 160.255 82.136C160.607 81.48 160.783 80.736 160.783 79.904V79.52C160.783 78.656 160.591 77.904 160.207 77.264C159.823 76.608 159.279 76.096 158.575 75.728C157.887 75.36 157.079 75.176 156.151 75.176C155.399 75.176 154.711 75.304 154.087 75.56C153.479 75.8 152.935 76.184 152.455 76.712L151.207 75.224C151.767 74.552 152.479 74.04 153.343 73.688C154.207 73.336 155.159 73.16 156.199 73.16ZM167.007 90.656H164.823C165.799 88.96 166.511 87.192 166.959 85.352C167.407 83.496 167.631 81.52 167.631 79.424C167.631 77.328 167.407 75.36 166.959 73.52C166.511 71.664 165.799 69.888 164.823 68.192H167.007C167.951 69.616 168.663 71.296 169.143 73.232C169.639 75.152 169.887 77.216 169.887 79.424C169.887 81.632 169.639 83.696 169.143 85.616C168.663 87.52 167.951 89.2 167.007 90.656ZM174.348 86V68.192H176.652V86H174.348ZM181.387 90.656V68.192H183.523V90.656H181.387Z" fill="black"/>
<path d="M18.6012 132L23.6732 120.8H25.2572L30.3452 132H28.6652L24.1372 121.696H24.7772L20.2492 132H18.6012ZM20.7612 129.2L21.1932 127.92H27.4972L27.9612 129.2H20.7612ZM36.2879 132.096C35.5839 132.096 34.9386 131.936 34.3519 131.616C33.7759 131.285 33.3119 130.8 32.9599 130.16C32.6186 129.52 32.4479 128.72 32.4479 127.76C32.4479 126.8 32.6133 126 32.9439 125.36C33.2853 124.72 33.7439 124.24 34.3199 123.92C34.9066 123.6 35.5626 123.44 36.2879 123.44C37.1199 123.44 37.8559 123.621 38.4959 123.984C39.1359 124.347 39.6426 124.853 40.0159 125.504C40.3893 126.144 40.5759 126.896 40.5759 127.76C40.5759 128.624 40.3893 129.381 40.0159 130.032C39.6426 130.683 39.1359 131.189 38.4959 131.552C37.8559 131.915 37.1199 132.096 36.2879 132.096ZM31.7919 135.104V123.52H33.2639V125.808L33.1679 127.776L33.3279 129.744V135.104H31.7919ZM36.1599 130.752C36.7039 130.752 37.1893 130.629 37.6159 130.384C38.0533 130.139 38.3946 129.792 38.6399 129.344C38.8959 128.885 39.0239 128.357 39.0239 127.76C39.0239 127.152 38.8959 126.629 38.6399 126.192C38.3946 125.744 38.0533 125.397 37.6159 125.152C37.1893 124.907 36.7039 124.784 36.1599 124.784C35.6266 124.784 35.1413 124.907 34.7039 125.152C34.2773 125.397 33.9359 125.744 33.6799 126.192C33.4346 126.629 33.3119 127.152 33.3119 127.76C33.3119 128.357 33.4346 128.885 33.6799 129.344C33.9359 129.792 34.2773 130.139 34.7039 130.384C35.1413 130.629 35.6266 130.752 36.1599 130.752ZM47.1942 132.096C46.4902 132.096 45.8449 131.936 45.2582 131.616C44.6822 131.285 44.2182 130.8 43.8662 130.16C43.5249 129.52 43.3542 128.72 43.3542 127.76C43.3542 126.8 43.5195 126 43.8502 125.36C44.1915 124.72 44.6502 124.24 45.2262 123.92C45.8129 123.6 46.4689 123.44 47.1942 123.44C48.0262 123.44 48.7622 123.621 49.4022 123.984C50.0422 124.347 50.5489 124.853 50.9222 125.504C51.2955 126.144 51.4822 126.896 51.4822 127.76C51.4822 128.624 51.2955 129.381 50.9222 130.032C50.5489 130.683 50.0422 131.189 49.4022 131.552C48.7622 131.915 48.0262 132.096 47.1942 132.096ZM42.6982 135.104V123.52H44.1702V125.808L44.0742 127.776L44.2342 129.744V135.104H42.6982ZM47.0662 130.752C47.6102 130.752 48.0955 130.629 48.5222 130.384C48.9595 130.139 49.3009 129.792 49.5462 129.344C49.8022 128.885 49.9302 128.357 49.9302 127.76C49.9302 127.152 49.8022 126.629 49.5462 126.192C49.3009 125.744 48.9595 125.397 48.5222 125.152C48.0955 124.907 47.6102 124.784 47.0662 124.784C46.5329 124.784 46.0475 124.907 45.6102 125.152C45.1835 125.397 44.8422 125.744 44.5862 126.192C44.3409 126.629 44.2182 127.152 44.2182 127.76C44.2182 128.357 44.3409 128.885 44.5862 129.344C44.8422 129.792 45.1835 130.139 45.6102 130.384C46.0475 130.629 46.5329 130.752 47.0662 130.752ZM53.6044 132V120.128H55.1404V132H53.6044ZM61.8492 132.096C60.9425 132.096 60.1425 131.909 59.4492 131.536C58.7665 131.163 58.2332 130.651 57.8492 130C57.4759 129.349 57.2892 128.603 57.2892 127.76C57.2892 126.917 57.4705 126.171 57.8332 125.52C58.2065 124.869 58.7132 124.363 59.3532 124C60.0039 123.627 60.7345 123.44 61.5452 123.44C62.3665 123.44 63.0919 123.621 63.7212 123.984C64.3505 124.347 64.8412 124.859 65.1932 125.52C65.5559 126.171 65.7372 126.933 65.7372 127.808C65.7372 127.872 65.7319 127.947 65.7212 128.032C65.7212 128.117 65.7159 128.197 65.7052 128.272H58.4892V127.168H64.9052L64.2812 127.552C64.2919 127.008 64.1799 126.523 63.9452 126.096C63.7105 125.669 63.3852 125.339 62.9692 125.104C62.5639 124.859 62.0892 124.736 61.5452 124.736C61.0119 124.736 60.5372 124.859 60.1212 125.104C59.7052 125.339 59.3799 125.675 59.1452 126.112C58.9105 126.539 58.7932 127.029 58.7932 127.584V127.84C58.7932 128.405 58.9212 128.912 59.1772 129.36C59.4439 129.797 59.8119 130.139 60.2812 130.384C60.7505 130.629 61.2892 130.752 61.8972 130.752C62.3985 130.752 62.8519 130.667 63.2572 130.496C63.6732 130.325 64.0359 130.069 64.3452 129.728L65.1932 130.72C64.8092 131.168 64.3292 131.509 63.7532 131.744C63.1879 131.979 62.5532 132.096 61.8492 132.096ZM75.8629 132.096C74.9989 132.096 74.2256 131.909 73.5429 131.536C72.8709 131.163 72.3429 130.651 71.9589 130C71.5749 129.349 71.3829 128.603 71.3829 127.76C71.3829 126.917 71.5749 126.171 71.9589 125.52C72.3429 124.869 72.8709 124.363 73.5429 124C74.2256 123.627 74.9989 123.44 75.8629 123.44C76.6309 123.44 77.3136 123.595 77.9109 123.904C78.5189 124.203 78.9883 124.651 79.3189 125.248L78.1509 126C77.8736 125.584 77.5323 125.28 77.1269 125.088C76.7323 124.885 76.3056 124.784 75.8469 124.784C75.2923 124.784 74.7963 124.907 74.3589 125.152C73.9216 125.397 73.5749 125.744 73.3189 126.192C73.0629 126.629 72.9349 127.152 72.9349 127.76C72.9349 128.368 73.0629 128.896 73.3189 129.344C73.5749 129.792 73.9216 130.139 74.3589 130.384C74.7963 130.629 75.2923 130.752 75.8469 130.752C76.3056 130.752 76.7323 130.656 77.1269 130.464C77.5323 130.261 77.8736 129.952 78.1509 129.536L79.3189 130.272C78.9883 130.859 78.5189 131.312 77.9109 131.632C77.3136 131.941 76.6309 132.096 75.8629 132.096ZM85.7262 123.44C86.4195 123.44 87.0275 123.573 87.5502 123.84C88.0835 124.107 88.4995 124.512 88.7982 125.056C89.0969 125.6 89.2462 126.288 89.2462 127.12V132H87.7102V127.296C87.7102 126.475 87.5075 125.856 87.1022 125.44C86.7075 125.024 86.1475 124.816 85.4222 124.816C84.8782 124.816 84.4035 124.923 83.9982 125.136C83.5929 125.349 83.2782 125.664 83.0542 126.08C82.8409 126.496 82.7342 127.013 82.7342 127.632V132H81.1982V120.128H82.7342V125.808L82.4302 125.2C82.7075 124.645 83.1342 124.213 83.7102 123.904C84.2862 123.595 84.9582 123.44 85.7262 123.44ZM92.0888 132V123.52H93.6248V132H92.0888ZM92.8568 121.888C92.5581 121.888 92.3075 121.792 92.1048 121.6C91.9128 121.408 91.8168 121.173 91.8168 120.896C91.8168 120.608 91.9128 120.368 92.1048 120.176C92.3075 119.984 92.5581 119.888 92.8568 119.888C93.1555 119.888 93.4008 119.984 93.5928 120.176C93.7955 120.357 93.8968 120.587 93.8968 120.864C93.8968 121.152 93.8008 121.397 93.6088 121.6C93.4168 121.792 93.1661 121.888 92.8568 121.888ZM101.054 132.096C100.35 132.096 99.7042 131.936 99.1176 131.616C98.5416 131.285 98.0776 130.8 97.7256 130.16C97.3842 129.52 97.2136 128.72 97.2136 127.76C97.2136 126.8 97.3789 126 97.7096 125.36C98.0509 124.72 98.5096 124.24 99.0856 123.92C99.6722 123.6 100.328 123.44 101.054 123.44C101.886 123.44 102.622 123.621 103.262 123.984C103.902 124.347 104.408 124.853 104.782 125.504C105.155 126.144 105.342 126.896 105.342 127.76C105.342 128.624 105.155 129.381 104.782 130.032C104.408 130.683 103.902 131.189 103.262 131.552C102.622 131.915 101.886 132.096 101.054 132.096ZM96.5576 135.104V123.52H98.0296V125.808L97.9336 127.776L98.0936 129.744V135.104H96.5576ZM100.926 130.752C101.47 130.752 101.955 130.629 102.382 130.384C102.819 130.139 103.16 129.792 103.406 129.344C103.662 128.885 103.79 128.357 103.79 127.76C103.79 127.152 103.662 126.629 103.406 126.192C103.16 125.744 102.819 125.397 102.382 125.152C101.955 124.907 101.47 124.784 100.926 124.784C100.392 124.784 99.9069 124.907 99.4696 125.152C99.0429 125.397 98.7016 125.744 98.4456 126.192C98.2002 126.629 98.0776 127.152 98.0776 127.76C98.0776 128.357 98.2002 128.885 98.4456 129.344C98.7016 129.792 99.0429 130.139 99.4696 130.384C99.9069 130.629 100.392 130.752 100.926 130.752ZM110.305 128.144V127.072H126.305V128.144H110.305ZM130.682 131.984L130.778 130.688C130.852 130.699 130.922 130.709 130.986 130.72C131.05 130.731 131.108 130.736 131.162 130.736C131.503 130.736 131.77 130.619 131.962 130.384C132.164 130.149 132.314 129.84 132.41 129.456C132.506 129.061 132.575 128.619 132.618 128.128C132.66 127.637 132.692 127.147 132.714 126.656L132.858 123.52H139.37V132H137.834V124.416L138.202 124.864H133.85L134.202 124.4L134.09 126.752C134.058 127.499 133.999 128.197 133.914 128.848C133.828 129.499 133.695 130.069 133.514 130.56C133.343 131.051 133.103 131.435 132.794 131.712C132.495 131.989 132.106 132.128 131.626 132.128C131.487 132.128 131.338 132.112 131.178 132.08C131.028 132.059 130.863 132.027 130.682 131.984ZM145.972 132.096C145.118 132.096 144.361 131.909 143.7 131.536C143.038 131.163 142.516 130.651 142.132 130C141.748 129.339 141.556 128.592 141.556 127.76C141.556 126.917 141.748 126.171 142.132 125.52C142.516 124.869 143.038 124.363 143.7 124C144.361 123.627 145.118 123.44 145.972 123.44C146.814 123.44 147.566 123.627 148.228 124C148.9 124.363 149.422 124.869 149.796 125.52C150.18 126.16 150.372 126.907 150.372 127.76C150.372 128.603 150.18 129.349 149.796 130C149.422 130.651 148.9 131.163 148.228 131.536C147.566 131.909 146.814 132.096 145.972 132.096ZM145.972 130.752C146.516 130.752 147.001 130.629 147.428 130.384C147.865 130.139 148.206 129.792 148.452 129.344C148.697 128.885 148.82 128.357 148.82 127.76C148.82 127.152 148.697 126.629 148.452 126.192C148.206 125.744 147.865 125.397 147.428 125.152C147.001 124.907 146.516 124.784 145.972 124.784C145.428 124.784 144.942 124.907 144.516 125.152C144.089 125.397 143.748 125.744 143.492 126.192C143.236 126.629 143.108 127.152 143.108 127.76C143.108 128.357 143.236 128.885 143.492 129.344C143.748 129.792 144.089 130.139 144.516 130.384C144.942 130.629 145.428 130.752 145.972 130.752ZM152.59 132V123.52H154.174L157.822 129.792H157.182L160.926 123.52H162.366V132H160.974V125.248L161.23 125.392L157.806 131.04H157.134L153.694 125.28L153.998 125.216V132H152.59ZM167.035 132V124.464L167.419 124.864H163.931V123.52H171.675V124.864H168.203L168.571 124.464V132H167.035ZM173.246 132V123.52H174.782V129.696L179.982 123.52H181.374V132H179.838V125.824L174.654 132H173.246ZM190.499 132L187.219 127.872L188.483 127.104L192.307 132H190.499ZM184.355 132V123.52H185.891V132H184.355ZM185.427 128.416V127.104H188.227V128.416H185.427ZM188.611 127.936L187.187 127.744L190.435 123.52H192.083L188.611 127.936ZM203.639 132V129.024L203.879 129.312H201.175C200.044 129.312 199.159 129.072 198.519 128.592C197.889 128.112 197.575 127.413 197.575 126.496C197.575 125.515 197.911 124.773 198.583 124.272C199.265 123.771 200.172 123.52 201.303 123.52H205.015V132H203.639ZM197.495 132L199.799 128.752H201.383L199.143 132H197.495ZM203.639 128.544V124.432L203.879 124.864H201.351C200.647 124.864 200.103 124.997 199.719 125.264C199.335 125.52 199.143 125.947 199.143 126.544C199.143 127.653 199.857 128.208 201.287 128.208H203.879L203.639 128.544ZM211.931 132.128C211.227 132.128 210.603 132.016 210.059 131.792C209.526 131.568 209.067 131.237 208.683 130.8C208.299 130.352 208.006 129.792 207.803 129.12C207.611 128.437 207.515 127.637 207.515 126.72C207.515 125.995 207.579 125.344 207.707 124.768C207.835 124.192 208.017 123.68 208.251 123.232C208.497 122.784 208.795 122.395 209.147 122.064C209.51 121.733 209.915 121.461 210.363 121.248C210.822 121.024 211.323 120.853 211.867 120.736L215.739 119.872L215.963 121.296L212.395 122.064C212.182 122.107 211.926 122.171 211.627 122.256C211.329 122.341 211.025 122.475 210.715 122.656C210.406 122.827 210.118 123.067 209.851 123.376C209.585 123.685 209.371 124.091 209.211 124.592C209.051 125.083 208.971 125.691 208.971 126.416C208.971 126.619 208.977 126.773 208.987 126.88C208.998 126.987 209.009 127.093 209.019 127.2C209.041 127.307 209.057 127.467 209.067 127.68L208.427 127.024C208.598 126.437 208.87 125.925 209.243 125.488C209.617 125.051 210.065 124.715 210.587 124.48C211.121 124.235 211.702 124.112 212.331 124.112C213.121 124.112 213.819 124.283 214.427 124.624C215.046 124.965 215.531 125.435 215.883 126.032C216.235 126.629 216.411 127.312 216.411 128.08C216.411 128.859 216.225 129.557 215.851 130.176C215.489 130.784 214.971 131.264 214.299 131.616C213.627 131.957 212.838 132.128 211.931 132.128ZM212.075 130.848C212.619 130.848 213.099 130.731 213.515 130.496C213.931 130.251 214.257 129.925 214.491 129.52C214.726 129.104 214.843 128.64 214.843 128.128C214.843 127.616 214.726 127.163 214.491 126.768C214.257 126.373 213.931 126.064 213.515 125.84C213.099 125.605 212.609 125.488 212.043 125.488C211.51 125.488 211.03 125.6 210.603 125.824C210.177 126.037 209.846 126.341 209.611 126.736C209.377 127.12 209.259 127.568 209.259 128.08C209.259 128.592 209.377 129.061 209.611 129.488C209.857 129.904 210.187 130.235 210.603 130.48C211.03 130.725 211.521 130.848 212.075 130.848ZM217.135 131.984L217.231 130.688C217.305 130.699 217.375 130.709 217.439 130.72C217.503 130.731 217.561 130.736 217.615 130.736C217.956 130.736 218.223 130.619 218.415 130.384C218.617 130.149 218.767 129.84 218.863 129.456C218.959 129.061 219.028 128.619 219.071 128.128C219.113 127.637 219.145 127.147 219.167 126.656L219.311 123.52H225.823V132H224.287V124.416L224.655 124.864H220.303L220.655 124.4L220.543 126.752C220.511 127.499 220.452 128.197 220.367 128.848C220.281 129.499 220.148 130.069 219.967 130.56C219.796 131.051 219.556 131.435 219.247 131.712C218.948 131.989 218.559 132.128 218.079 132.128C217.94 132.128 217.791 132.112 217.631 132.08C217.481 132.059 217.316 132.027 217.135 131.984ZM232.425 132.096C231.571 132.096 230.814 131.909 230.153 131.536C229.491 131.163 228.969 130.651 228.585 130C228.201 129.339 228.009 128.592 228.009 127.76C228.009 126.917 228.201 126.171 228.585 125.52C228.969 124.869 229.491 124.363 230.153 124C230.814 123.627 231.571 123.44 232.425 123.44C233.267 123.44 234.019 123.627 234.681 124C235.353 124.363 235.875 124.869 236.249 125.52C236.633 126.16 236.825 126.907 236.825 127.76C236.825 128.603 236.633 129.349 236.249 130C235.875 130.651 235.353 131.163 234.681 131.536C234.019 131.909 233.267 132.096 232.425 132.096ZM232.425 130.752C232.969 130.752 233.454 130.629 233.881 130.384C234.318 130.139 234.659 129.792 234.905 129.344C235.15 128.885 235.273 128.357 235.273 127.76C235.273 127.152 235.15 126.629 234.905 126.192C234.659 125.744 234.318 125.397 233.881 125.152C233.454 124.907 232.969 124.784 232.425 124.784C231.881 124.784 231.395 124.907 230.969 125.152C230.542 125.397 230.201 125.744 229.945 126.192C229.689 126.629 229.561 127.152 229.561 127.76C229.561 128.357 229.689 128.885 229.945 129.344C230.201 129.792 230.542 130.139 230.969 130.384C231.395 130.629 231.881 130.752 232.425 130.752ZM245.187 132L241.907 127.872L243.171 127.104L246.995 132H245.187ZM239.043 132V123.52H240.579V132H239.043ZM240.115 128.416V127.104H242.915V128.416H240.115ZM243.299 127.936L241.875 127.744L245.123 123.52H246.771L243.299 127.936ZM253.649 132V130.208L253.569 129.872V126.816C253.569 126.165 253.377 125.664 252.993 125.312C252.62 124.949 252.054 124.768 251.297 124.768C250.796 124.768 250.305 124.853 249.825 125.024C249.345 125.184 248.94 125.403 248.609 125.68L247.969 124.528C248.406 124.176 248.929 123.909 249.537 123.728C250.156 123.536 250.801 123.44 251.473 123.44C252.636 123.44 253.532 123.723 254.161 124.288C254.79 124.853 255.105 125.717 255.105 126.88V132H253.649ZM250.865 132.096C250.236 132.096 249.681 131.989 249.201 131.776C248.732 131.563 248.369 131.269 248.113 130.896C247.857 130.512 247.729 130.08 247.729 129.6C247.729 129.141 247.836 128.725 248.049 128.352C248.273 127.979 248.63 127.68 249.121 127.456C249.622 127.232 250.294 127.12 251.137 127.12H253.825V128.224H251.201C250.433 128.224 249.916 128.352 249.649 128.608C249.382 128.864 249.249 129.173 249.249 129.536C249.249 129.952 249.414 130.288 249.745 130.544C250.076 130.789 250.534 130.912 251.121 130.912C251.697 130.912 252.198 130.784 252.625 130.528C253.062 130.272 253.377 129.899 253.569 129.408L253.873 130.464C253.67 130.965 253.313 131.365 252.801 131.664C252.289 131.952 251.644 132.096 250.865 132.096ZM18.2496 152L23.3216 140.8H24.9056L29.9936 152H28.3136L23.7856 141.696H24.4256L19.8976 152H18.2496ZM20.4096 149.2L20.8416 147.92H27.1456L27.6096 149.2H20.4096ZM35.9364 152.096C35.2324 152.096 34.587 151.936 34.0004 151.616C33.4244 151.285 32.9604 150.8 32.6084 150.16C32.267 149.52 32.0964 148.72 32.0964 147.76C32.0964 146.8 32.2617 146 32.5924 145.36C32.9337 144.72 33.3924 144.24 33.9684 143.92C34.555 143.6 35.211 143.44 35.9364 143.44C36.7684 143.44 37.5044 143.621 38.1444 143.984C38.7844 144.347 39.291 144.853 39.6644 145.504C40.0377 146.144 40.2244 146.896 40.2244 147.76C40.2244 148.624 40.0377 149.381 39.6644 150.032C39.291 150.683 38.7844 151.189 38.1444 151.552C37.5044 151.915 36.7684 152.096 35.9364 152.096ZM31.4404 155.104V143.52H32.9124V145.808L32.8164 147.776L32.9764 149.744V155.104H31.4404ZM35.8084 150.752C36.3524 150.752 36.8377 150.629 37.2644 150.384C37.7017 150.139 38.043 149.792 38.2884 149.344C38.5444 148.885 38.6724 148.357 38.6724 147.76C38.6724 147.152 38.5444 146.629 38.2884 146.192C38.043 145.744 37.7017 145.397 37.2644 145.152C36.8377 144.907 36.3524 144.784 35.8084 144.784C35.275 144.784 34.7897 144.907 34.3524 145.152C33.9257 145.397 33.5844 145.744 33.3284 146.192C33.083 146.629 32.9604 147.152 32.9604 147.76C32.9604 148.357 33.083 148.885 33.3284 149.344C33.5844 149.792 33.9257 150.139 34.3524 150.384C34.7897 150.629 35.275 150.752 35.8084 150.752ZM46.8426 152.096C46.1386 152.096 45.4933 151.936 44.9066 151.616C44.3306 151.285 43.8666 150.8 43.5146 150.16C43.1733 149.52 43.0026 148.72 43.0026 147.76C43.0026 146.8 43.168 146 43.4986 145.36C43.84 144.72 44.2986 144.24 44.8746 143.92C45.4613 143.6 46.1173 143.44 46.8426 143.44C47.6746 143.44 48.4106 143.621 49.0506 143.984C49.6906 144.347 50.1973 144.853 50.5706 145.504C50.944 146.144 51.1306 146.896 51.1306 147.76C51.1306 148.624 50.944 149.381 50.5706 150.032C50.1973 150.683 49.6906 151.189 49.0506 151.552C48.4106 151.915 47.6746 152.096 46.8426 152.096ZM42.3466 155.104V143.52H43.8186V145.808L43.7226 147.776L43.8826 149.744V155.104H42.3466ZM46.7146 150.752C47.2586 150.752 47.744 150.629 48.1706 150.384C48.608 150.139 48.9493 149.792 49.1946 149.344C49.4506 148.885 49.5786 148.357 49.5786 147.76C49.5786 147.152 49.4506 146.629 49.1946 146.192C48.9493 145.744 48.608 145.397 48.1706 145.152C47.744 144.907 47.2586 144.784 46.7146 144.784C46.1813 144.784 45.696 144.907 45.2586 145.152C44.832 145.397 44.4906 145.744 44.2346 146.192C43.9893 146.629 43.8666 147.152 43.8666 147.76C43.8666 148.357 43.9893 148.885 44.2346 149.344C44.4906 149.792 44.832 150.139 45.2586 150.384C45.696 150.629 46.1813 150.752 46.7146 150.752ZM53.2529 152V140.128H54.7889V152H53.2529ZM61.4976 152.096C60.591 152.096 59.791 151.909 59.0976 151.536C58.415 151.163 57.8816 150.651 57.4976 150C57.1243 149.349 56.9376 148.603 56.9376 147.76C56.9376 146.917 57.119 146.171 57.4816 145.52C57.855 144.869 58.3616 144.363 59.0016 144C59.6523 143.627 60.383 143.44 61.1936 143.44C62.015 143.44 62.7403 143.621 63.3696 143.984C63.999 144.347 64.4896 144.859 64.8416 145.52C65.2043 146.171 65.3856 146.933 65.3856 147.808C65.3856 147.872 65.3803 147.947 65.3696 148.032C65.3696 148.117 65.3643 148.197 65.3536 148.272H58.1376V147.168H64.5536L63.9296 147.552C63.9403 147.008 63.8283 146.523 63.5936 146.096C63.359 145.669 63.0336 145.339 62.6176 145.104C62.2123 144.859 61.7376 144.736 61.1936 144.736C60.6603 144.736 60.1856 144.859 59.7696 145.104C59.3536 145.339 59.0283 145.675 58.7936 146.112C58.559 146.539 58.4416 147.029 58.4416 147.584V147.84C58.4416 148.405 58.5696 148.912 58.8256 149.36C59.0923 149.797 59.4603 150.139 59.9296 150.384C60.399 150.629 60.9376 150.752 61.5456 150.752C62.047 150.752 62.5003 150.667 62.9056 150.496C63.3216 150.325 63.6843 150.069 63.9936 149.728L64.8416 150.72C64.4576 151.168 63.9776 151.509 63.4016 151.744C62.8363 151.979 62.2016 152.096 61.4976 152.096ZM70.7274 155.2C70.3754 155.2 70.0394 155.157 69.7194 155.072C69.3887 154.987 69.1114 154.859 68.8874 154.688L69.3834 153.504C69.7034 153.771 70.1194 153.904 70.6314 153.904C71.0367 153.904 71.346 153.776 71.5594 153.52C71.7834 153.275 71.8954 152.907 71.8954 152.416V143.52H73.4314V152.384C73.4314 153.248 73.1967 153.931 72.7274 154.432C72.2687 154.944 71.602 155.2 70.7274 155.2ZM72.6634 141.888C72.3647 141.888 72.114 141.792 71.9114 141.6C71.7194 141.408 71.6234 141.173 71.6234 140.896C71.6234 140.608 71.7194 140.368 71.9114 140.176C72.114 139.984 72.3647 139.888 72.6634 139.888C72.962 139.888 73.2074 139.984 73.3994 140.176C73.602 140.357 73.7034 140.587 73.7034 140.864C73.7034 141.152 73.6074 141.397 73.4154 141.6C73.2234 141.792 72.9727 141.888 72.6634 141.888ZM80.1383 152.096C79.2316 152.096 78.4316 151.909 77.7383 151.536C77.0556 151.163 76.5223 150.651 76.1383 150C75.7649 149.349 75.5783 148.603 75.5783 147.76C75.5783 146.917 75.7596 146.171 76.1223 145.52C76.4956 144.869 77.0023 144.363 77.6423 144C78.2929 143.627 79.0236 143.44 79.8343 143.44C80.6556 143.44 81.3809 143.621 82.0103 143.984C82.6396 144.347 83.1303 144.859 83.4823 145.52C83.8449 146.171 84.0263 146.933 84.0263 147.808C84.0263 147.872 84.0209 147.947 84.0103 148.032C84.0103 148.117 84.0049 148.197 83.9943 148.272H76.7783V147.168H83.1943L82.5703 147.552C82.5809 147.008 82.4689 146.523 82.2343 146.096C81.9996 145.669 81.6743 145.339 81.2583 145.104C80.8529 144.859 80.3783 144.736 79.8343 144.736C79.3009 144.736 78.8263 144.859 78.4103 145.104C77.9943 145.339 77.6689 145.675 77.4343 146.112C77.1996 146.539 77.0823 147.029 77.0823 147.584V147.84C77.0823 148.405 77.2103 148.912 77.4663 149.36C77.7329 149.797 78.1009 150.139 78.5703 150.384C79.0396 150.629 79.5783 150.752 80.1863 150.752C80.6876 150.752 81.1409 150.667 81.5463 150.496C81.9623 150.325 82.3249 150.069 82.6343 149.728L83.4823 150.72C83.0983 151.168 82.6183 151.509 82.0423 151.744C81.4769 151.979 80.8423 152.096 80.1383 152.096ZM86.1591 152V140.128H87.6951V152H86.1591ZM90.6279 152V140.128H92.1639V152H90.6279ZM95.4646 155.2C95.0593 155.2 94.6646 155.131 94.2806 154.992C93.8966 154.864 93.566 154.672 93.2886 154.416L93.9446 153.264C94.158 153.467 94.3926 153.621 94.6486 153.728C94.9046 153.835 95.1766 153.888 95.4646 153.888C95.838 153.888 96.1473 153.792 96.3926 153.6C96.638 153.408 96.8673 153.067 97.0806 152.576L97.6086 151.408L97.7686 151.216L101.097 143.52H102.601L98.4886 152.848C98.2433 153.445 97.966 153.915 97.6566 154.256C97.358 154.597 97.0273 154.837 96.6646 154.976C96.302 155.125 95.902 155.2 95.4646 155.2ZM97.4806 152.272L93.6086 143.52H95.2086L98.5046 151.072L97.4806 152.272ZM106.875 148.144V147.072H122.875V148.144H106.875ZM134.084 152V149.024L134.324 149.312H131.62C130.489 149.312 129.604 149.072 128.964 148.592C128.335 148.112 128.02 147.413 128.02 146.496C128.02 145.515 128.356 144.773 129.028 144.272C129.711 143.771 130.617 143.52 131.748 143.52H135.46V152H134.084ZM127.94 152L130.244 148.752H131.828L129.588 152H127.94ZM134.084 148.544V144.432L134.324 144.864H131.796C131.092 144.864 130.548 144.997 130.164 145.264C129.78 145.52 129.588 145.947 129.588 146.544C129.588 147.653 130.303 148.208 131.732 148.208H134.324L134.084 148.544ZM142.377 152.128C141.673 152.128 141.049 152.016 140.505 151.792C139.971 151.568 139.513 151.237 139.129 150.8C138.745 150.352 138.451 149.792 138.249 149.12C138.057 148.437 137.961 147.637 137.961 146.72C137.961 145.995 138.025 145.344 138.153 144.768C138.281 144.192 138.462 143.68 138.697 143.232C138.942 142.784 139.241 142.395 139.593 142.064C139.955 141.733 140.361 141.461 140.809 141.248C141.267 141.024 141.769 140.853 142.313 140.736L146.185 139.872L146.409 141.296L142.841 142.064C142.627 142.107 142.371 142.171 142.073 142.256C141.774 142.341 141.47 142.475 141.161 142.656C140.851 142.827 140.563 143.067 140.297 143.376C140.03 143.685 139.817 144.091 139.657 144.592C139.497 145.083 139.417 145.691 139.417 146.416C139.417 146.619 139.422 146.773 139.433 146.88C139.443 146.987 139.454 147.093 139.465 147.2C139.486 147.307 139.502 147.467 139.513 147.68L138.873 147.024C139.043 146.437 139.315 145.925 139.689 145.488C140.062 145.051 140.51 144.715 141.033 144.48C141.566 144.235 142.147 144.112 142.777 144.112C143.566 144.112 144.265 144.283 144.873 144.624C145.491 144.965 145.977 145.435 146.329 146.032C146.681 146.629 146.857 147.312 146.857 148.08C146.857 148.859 146.67 149.557 146.297 150.176C145.934 150.784 145.417 151.264 144.745 151.616C144.073 151.957 143.283 152.128 142.377 152.128ZM142.521 150.848C143.065 150.848 143.545 150.731 143.961 150.496C144.377 150.251 144.702 149.925 144.937 149.52C145.171 149.104 145.289 148.64 145.289 148.128C145.289 147.616 145.171 147.163 144.937 146.768C144.702 146.373 144.377 146.064 143.961 145.84C143.545 145.605 143.054 145.488 142.489 145.488C141.955 145.488 141.475 145.6 141.049 145.824C140.622 146.037 140.291 146.341 140.057 146.736C139.822 147.12 139.705 147.568 139.705 148.08C139.705 148.592 139.822 149.061 140.057 149.488C140.302 149.904 140.633 150.235 141.049 150.48C141.475 150.725 141.966 150.848 142.521 150.848ZM147.58 151.984L147.676 150.688C147.751 150.699 147.82 150.709 147.884 150.72C147.948 150.731 148.007 150.736 148.06 150.736C148.401 150.736 148.668 150.619 148.86 150.384C149.063 150.149 149.212 149.84 149.308 149.456C149.404 149.061 149.473 148.619 149.516 148.128C149.559 147.637 149.591 147.147 149.612 146.656L149.756 143.52H156.268V152H154.732V144.416L155.1 144.864H150.748L151.1 144.4L150.988 146.752C150.956 147.499 150.897 148.197 150.812 148.848C150.727 149.499 150.593 150.069 150.412 150.56C150.241 151.051 150.001 151.435 149.692 151.712C149.393 151.989 149.004 152.128 148.524 152.128C148.385 152.128 148.236 152.112 148.076 152.08C147.927 152.059 147.761 152.027 147.58 151.984ZM162.87 152.096C162.017 152.096 161.259 151.909 160.598 151.536C159.937 151.163 159.414 150.651 159.03 150C158.646 149.339 158.454 148.592 158.454 147.76C158.454 146.917 158.646 146.171 159.03 145.52C159.414 144.869 159.937 144.363 160.598 144C161.259 143.627 162.017 143.44 162.87 143.44C163.713 143.44 164.465 143.627 165.126 144C165.798 144.363 166.321 144.869 166.694 145.52C167.078 146.16 167.27 146.907 167.27 147.76C167.27 148.603 167.078 149.349 166.694 150C166.321 150.651 165.798 151.163 165.126 151.536C164.465 151.909 163.713 152.096 162.87 152.096ZM162.87 150.752C163.414 150.752 163.899 150.629 164.326 150.384C164.763 150.139 165.105 149.792 165.35 149.344C165.595 148.885 165.718 148.357 165.718 147.76C165.718 147.152 165.595 146.629 165.35 146.192C165.105 145.744 164.763 145.397 164.326 145.152C163.899 144.907 163.414 144.784 162.87 144.784C162.326 144.784 161.841 144.907 161.414 145.152C160.987 145.397 160.646 145.744 160.39 146.192C160.134 146.629 160.006 147.152 160.006 147.76C160.006 148.357 160.134 148.885 160.39 149.344C160.646 149.792 160.987 150.139 161.414 150.384C161.841 150.629 162.326 150.752 162.87 150.752ZM174.832 148.528C174.384 148.741 173.92 148.912 173.44 149.04C172.971 149.157 172.485 149.216 171.984 149.216C170.96 149.216 170.149 148.976 169.552 148.496C168.965 148.016 168.672 147.275 168.672 146.272V143.52H170.208V146.176C170.208 146.784 170.395 147.232 170.768 147.52C171.152 147.808 171.664 147.952 172.304 147.952C172.709 147.952 173.125 147.899 173.552 147.792C173.989 147.685 174.416 147.536 174.832 147.344V148.528ZM174.72 152V143.52H176.256V152H174.72ZM179.238 152V143.52H180.774V147.12H185.606V143.52H187.142V152H185.606V148.448H180.774V152H179.238ZM193.761 152.096C192.907 152.096 192.15 151.909 191.489 151.536C190.827 151.163 190.305 150.651 189.921 150C189.537 149.339 189.345 148.592 189.345 147.76C189.345 146.917 189.537 146.171 189.921 145.52C190.305 144.869 190.827 144.363 191.489 144C192.15 143.627 192.907 143.44 193.761 143.44C194.603 143.44 195.355 143.627 196.017 144C196.689 144.363 197.211 144.869 197.585 145.52C197.969 146.16 198.161 146.907 198.161 147.76C198.161 148.603 197.969 149.349 197.585 150C197.211 150.651 196.689 151.163 196.017 151.536C195.355 151.909 194.603 152.096 193.761 152.096ZM193.761 150.752C194.305 150.752 194.79 150.629 195.217 150.384C195.654 150.139 195.995 149.792 196.241 149.344C196.486 148.885 196.609 148.357 196.609 147.76C196.609 147.152 196.486 146.629 196.241 146.192C195.995 145.744 195.654 145.397 195.217 145.152C194.79 144.907 194.305 144.784 193.761 144.784C193.217 144.784 192.731 144.907 192.305 145.152C191.878 145.397 191.537 145.744 191.281 146.192C191.025 146.629 190.897 147.152 190.897 147.76C190.897 148.357 191.025 148.885 191.281 149.344C191.537 149.792 191.878 150.139 192.305 150.384C192.731 150.629 193.217 150.752 193.761 150.752ZM204.155 152.096C203.248 152.096 202.448 151.909 201.755 151.536C201.072 151.163 200.539 150.651 200.155 150C199.781 149.349 199.595 148.603 199.595 147.76C199.595 146.917 199.776 146.171 200.139 145.52C200.512 144.869 201.019 144.363 201.659 144C202.309 143.627 203.04 143.44 203.851 143.44C204.672 143.44 205.397 143.621 206.027 143.984C206.656 144.347 207.147 144.859 207.499 145.52C207.861 146.171 208.043 146.933 208.043 147.808C208.043 147.872 208.037 147.947 208.027 148.032C208.027 148.117 208.021 148.197 208.011 148.272H200.795V147.168H207.211L206.587 147.552C206.597 147.008 206.485 146.523 206.251 146.096C206.016 145.669 205.691 145.339 205.275 145.104C204.869 144.859 204.395 144.736 203.851 144.736C203.317 144.736 202.843 144.859 202.427 145.104C202.011 145.339 201.685 145.675 201.451 146.112C201.216 146.539 201.099 147.029 201.099 147.584V147.84C201.099 148.405 201.227 148.912 201.483 149.36C201.749 149.797 202.117 150.139 202.587 150.384C203.056 150.629 203.595 150.752 204.203 150.752C204.704 150.752 205.157 150.667 205.563 150.496C205.979 150.325 206.341 150.069 206.651 149.728L207.499 150.72C207.115 151.168 206.635 151.509 206.059 151.744C205.493 151.979 204.859 152.096 204.155 152.096ZM224.786 152L222.082 147.872L223.346 147.104L226.61 152H224.786ZM220.322 148.416V147.104H223.074V148.416H220.322ZM223.49 147.936L222.034 147.744L224.738 143.52H226.386L223.49 147.936ZM215.266 152H213.442L216.69 147.104L217.954 147.872L215.266 152ZM220.786 152H219.25V143.52H220.786V152ZM219.714 148.416H216.978V147.104H219.714V148.416ZM216.562 147.936L213.666 143.52H215.298L218.002 147.744L216.562 147.936ZM231.795 152.096C230.889 152.096 230.089 151.909 229.395 151.536C228.713 151.163 228.179 150.651 227.795 150C227.422 149.349 227.235 148.603 227.235 147.76C227.235 146.917 227.417 146.171 227.779 145.52C228.153 144.869 228.659 144.363 229.299 144C229.95 143.627 230.681 143.44 231.491 143.44C232.313 143.44 233.038 143.621 233.667 143.984C234.297 144.347 234.787 144.859 235.139 145.52C235.502 146.171 235.683 146.933 235.683 147.808C235.683 147.872 235.678 147.947 235.667 148.032C235.667 148.117 235.662 148.197 235.651 148.272H228.435V147.168H234.851L234.227 147.552C234.238 147.008 234.126 146.523 233.891 146.096C233.657 145.669 233.331 145.339 232.915 145.104C232.51 144.859 232.035 144.736 231.491 144.736C230.958 144.736 230.483 144.859 230.067 145.104C229.651 145.339 229.326 145.675 229.091 146.112C228.857 146.539 228.739 147.029 228.739 147.584V147.84C228.739 148.405 228.867 148.912 229.123 149.36C229.39 149.797 229.758 150.139 230.227 150.384C230.697 150.629 231.235 150.752 231.843 150.752C232.345 150.752 232.798 150.667 233.203 150.496C233.619 150.325 233.982 150.069 234.291 149.728L235.139 150.72C234.755 151.168 234.275 151.509 233.699 151.744C233.134 151.979 232.499 152.096 231.795 152.096ZM236.518 151.984L236.614 150.688C236.688 150.699 236.758 150.709 236.822 150.72C236.886 150.731 236.944 150.736 236.998 150.736C237.339 150.736 237.606 150.619 237.798 150.384C238 150.149 238.15 149.84 238.246 149.456C238.342 149.061 238.411 148.619 238.454 148.128C238.496 147.637 238.528 147.147 238.549 146.656L238.694 143.52H245.206V152H243.67V144.416L244.038 144.864H239.686L240.038 144.4L239.926 146.752C239.894 147.499 239.835 148.197 239.75 148.848C239.664 149.499 239.531 150.069 239.35 150.56C239.179 151.051 238.939 151.435 238.63 151.712C238.331 151.989 237.942 152.128 237.462 152.128C237.323 152.128 237.174 152.112 237.014 152.08C236.864 152.059 236.699 152.027 236.518 151.984ZM251.952 152.096C251.045 152.096 250.245 151.909 249.552 151.536C248.869 151.163 248.336 150.651 247.952 150C247.578 149.349 247.392 148.603 247.392 147.76C247.392 146.917 247.573 146.171 247.936 145.52C248.309 144.869 248.816 144.363 249.456 144C250.106 143.627 250.837 143.44 251.648 143.44C252.469 143.44 253.194 143.621 253.824 143.984C254.453 144.347 254.944 144.859 255.296 145.52C255.658 146.171 255.84 146.933 255.84 147.808C255.84 147.872 255.834 147.947 255.824 148.032C255.824 148.117 255.818 148.197 255.808 148.272H248.592V147.168H255.008L254.384 147.552C254.394 147.008 254.282 146.523 254.048 146.096C253.813 145.669 253.488 145.339 253.072 145.104C252.666 144.859 252.192 144.736 251.648 144.736C251.114 144.736 250.64 144.859 250.224 145.104C249.808 145.339 249.482 145.675 249.248 146.112C249.013 146.539 248.896 147.029 248.896 147.584V147.84C248.896 148.405 249.024 148.912 249.28 149.36C249.546 149.797 249.914 150.139 250.384 150.384C250.853 150.629 251.392 150.752 252 150.752C252.501 150.752 252.954 150.667 253.36 150.496C253.776 150.325 254.138 150.069 254.448 149.728L255.296 150.72C254.912 151.168 254.432 151.509 253.856 151.744C253.29 151.979 252.656 152.096 251.952 152.096ZM23.6402 172L28.7123 160.8H30.2963L35.3843 172H33.7043L29.1763 161.696H29.8163L25.2883 172H23.6402ZM25.8003 169.2L26.2323 167.92H32.5363L33.0003 169.2H25.8003ZM41.359 163.44C42.0523 163.44 42.6603 163.573 43.183 163.84C43.7163 164.107 44.1323 164.512 44.431 165.056C44.7297 165.6 44.879 166.288 44.879 167.12V172H43.343V167.296C43.343 166.475 43.1403 165.856 42.735 165.44C42.3403 165.024 41.7803 164.816 41.055 164.816C40.511 164.816 40.0363 164.923 39.631 165.136C39.2257 165.349 38.911 165.664 38.687 166.08C38.4737 166.496 38.367 167.013 38.367 167.632V172H36.831V163.52H38.303V165.808L38.063 165.2C38.3403 164.645 38.767 164.213 39.343 163.904C39.919 163.595 40.591 163.44 41.359 163.44ZM57.2825 172V170.208L57.2025 169.872V166.816C57.2025 166.165 57.0105 165.664 56.6265 165.312C56.2532 164.949 55.6878 164.768 54.9305 164.768C54.4292 164.768 53.9385 164.853 53.4585 165.024C52.9785 165.184 52.5732 165.403 52.2425 165.68L51.6025 164.528C52.0398 164.176 52.5625 163.909 53.1705 163.728C53.7892 163.536 54.4345 163.44 55.1065 163.44C56.2692 163.44 57.1652 163.723 57.7945 164.288C58.4238 164.853 58.7385 165.717 58.7385 166.88V172H57.2825ZM54.4985 172.096C53.8692 172.096 53.3145 171.989 52.8345 171.776C52.3652 171.563 52.0025 171.269 51.7465 170.896C51.4905 170.512 51.3625 170.08 51.3625 169.6C51.3625 169.141 51.4692 168.725 51.6825 168.352C51.9065 167.979 52.2638 167.68 52.7545 167.456C53.2558 167.232 53.9278 167.12 54.7705 167.12H57.4585V168.224H54.8345C54.0665 168.224 53.5492 168.352 53.2825 168.608C53.0158 168.864 52.8825 169.173 52.8825 169.536C52.8825 169.952 53.0478 170.288 53.3785 170.544C53.7092 170.789 54.1678 170.912 54.7545 170.912C55.3305 170.912 55.8318 170.784 56.2585 170.528C56.6958 170.272 57.0105 169.899 57.2025 169.408L57.5065 170.464C57.3038 170.965 56.9465 171.365 56.4345 171.664C55.9225 171.952 55.2772 172.096 54.4985 172.096ZM66.077 172.096C65.373 172.096 64.7277 171.936 64.141 171.616C63.565 171.285 63.101 170.8 62.749 170.16C62.4077 169.52 62.237 168.72 62.237 167.76C62.237 166.8 62.4023 166 62.733 165.36C63.0743 164.72 63.533 164.24 64.109 163.92C64.6957 163.6 65.3517 163.44 66.077 163.44C66.909 163.44 67.645 163.621 68.285 163.984C68.925 164.347 69.4317 164.853 69.805 165.504C70.1783 166.144 70.365 166.896 70.365 167.76C70.365 168.624 70.1783 169.381 69.805 170.032C69.4317 170.683 68.925 171.189 68.285 171.552C67.645 171.915 66.909 172.096 66.077 172.096ZM61.581 175.104V163.52H63.053V165.808L62.957 167.776L63.117 169.744V175.104H61.581ZM65.949 170.752C66.493 170.752 66.9783 170.629 67.405 170.384C67.8423 170.139 68.1837 169.792 68.429 169.344C68.685 168.885 68.813 168.357 68.813 167.76C68.813 167.152 68.685 166.629 68.429 166.192C68.1837 165.744 67.8423 165.397 67.405 165.152C66.9783 164.907 66.493 164.784 65.949 164.784C65.4157 164.784 64.9303 164.907 64.493 165.152C64.0663 165.397 63.725 165.744 63.469 166.192C63.2237 166.629 63.101 167.152 63.101 167.76C63.101 168.357 63.2237 168.885 63.469 169.344C63.725 169.792 64.0663 170.139 64.493 170.384C64.9303 170.629 65.4157 170.752 65.949 170.752ZM76.9833 172.096C76.2793 172.096 75.6339 171.936 75.0473 171.616C74.4713 171.285 74.0073 170.8 73.6553 170.16C73.3139 169.52 73.1432 168.72 73.1432 167.76C73.1432 166.8 73.3086 166 73.6393 165.36C73.9806 164.72 74.4393 164.24 75.0153 163.92C75.6019 163.6 76.2579 163.44 76.9833 163.44C77.8153 163.44 78.5513 163.621 79.1913 163.984C79.8313 164.347 80.3379 164.853 80.7113 165.504C81.0846 166.144 81.2713 166.896 81.2713 167.76C81.2713 168.624 81.0846 169.381 80.7113 170.032C80.3379 170.683 79.8313 171.189 79.1913 171.552C78.5513 171.915 77.8153 172.096 76.9833 172.096ZM72.4873 175.104V163.52H73.9593V165.808L73.8633 167.776L74.0233 169.744V175.104H72.4873ZM76.8553 170.752C77.3993 170.752 77.8846 170.629 78.3113 170.384C78.7486 170.139 79.0899 169.792 79.3353 169.344C79.5913 168.885 79.7193 168.357 79.7193 167.76C79.7193 167.152 79.5913 166.629 79.3353 166.192C79.0899 165.744 78.7486 165.397 78.3113 165.152C77.8846 164.907 77.3993 164.784 76.8553 164.784C76.3219 164.784 75.8366 164.907 75.3993 165.152C74.9726 165.397 74.6313 165.744 74.3753 166.192C74.1299 166.629 74.0073 167.152 74.0073 167.76C74.0073 168.357 74.1299 168.885 74.3753 169.344C74.6313 169.792 74.9726 170.139 75.3993 170.384C75.8366 170.629 76.3219 170.752 76.8553 170.752ZM83.3935 172V160.128H84.9295V172H83.3935ZM91.6383 172.096C90.7316 172.096 89.9316 171.909 89.2383 171.536C88.5556 171.163 88.0223 170.651 87.6383 170C87.2649 169.349 87.0783 168.603 87.0783 167.76C87.0783 166.917 87.2596 166.171 87.6223 165.52C87.9956 164.869 88.5023 164.363 89.1423 164C89.7929 163.627 90.5236 163.44 91.3343 163.44C92.1556 163.44 92.8809 163.621 93.5103 163.984C94.1396 164.347 94.6303 164.859 94.9823 165.52C95.3449 166.171 95.5263 166.933 95.5263 167.808C95.5263 167.872 95.5209 167.947 95.5103 168.032C95.5103 168.117 95.5049 168.197 95.4943 168.272H88.2783V167.168H94.6943L94.0703 167.552C94.0809 167.008 93.9689 166.523 93.7343 166.096C93.4996 165.669 93.1743 165.339 92.7583 165.104C92.3529 164.859 91.8783 164.736 91.3343 164.736C90.8009 164.736 90.3263 164.859 89.9103 165.104C89.4943 165.339 89.1689 165.675 88.9343 166.112C88.6996 166.539 88.5823 167.029 88.5823 167.584V167.84C88.5823 168.405 88.7103 168.912 88.9663 169.36C89.2329 169.797 89.6009 170.139 90.0703 170.384C90.5396 170.629 91.0783 170.752 91.6863 170.752C92.1876 170.752 92.6409 170.667 93.0463 170.496C93.4623 170.325 93.8249 170.069 94.1343 169.728L94.9823 170.72C94.5983 171.168 94.1183 171.509 93.5423 171.744C92.9769 171.979 92.3423 172.096 91.6383 172.096ZM102.18 172V162.768C102.18 161.936 102.42 161.275 102.9 160.784C103.391 160.283 104.084 160.032 104.98 160.032C105.311 160.032 105.625 160.075 105.924 160.16C106.233 160.235 106.495 160.357 106.708 160.528L106.244 161.696C106.084 161.568 105.903 161.472 105.7 161.408C105.497 161.333 105.284 161.296 105.06 161.296C104.612 161.296 104.271 161.424 104.036 161.68C103.801 161.925 103.684 162.293 103.684 162.784V163.92L103.716 164.624V172H102.18ZM100.74 164.784V163.52H106.148V164.784H100.74ZM111.248 172.096C110.341 172.096 109.541 171.909 108.848 171.536C108.165 171.163 107.632 170.651 107.248 170C106.874 169.349 106.688 168.603 106.688 167.76C106.688 166.917 106.869 166.171 107.232 165.52C107.605 164.869 108.112 164.363 108.752 164C109.402 163.627 110.133 163.44 110.944 163.44C111.765 163.44 112.49 163.621 113.12 163.984C113.749 164.347 114.24 164.859 114.592 165.52C114.954 166.171 115.136 166.933 115.136 167.808C115.136 167.872 115.13 167.947 115.12 168.032C115.12 168.117 115.114 168.197 115.104 168.272H107.888V167.168H114.304L113.68 167.552C113.69 167.008 113.578 166.523 113.344 166.096C113.109 165.669 112.784 165.339 112.368 165.104C111.962 164.859 111.488 164.736 110.944 164.736C110.41 164.736 109.936 164.859 109.52 165.104C109.104 165.339 108.778 165.675 108.544 166.112C108.309 166.539 108.192 167.029 108.192 167.584V167.84C108.192 168.405 108.32 168.912 108.576 169.36C108.842 169.797 109.21 170.139 109.68 170.384C110.149 170.629 110.688 170.752 111.296 170.752C111.797 170.752 112.25 170.667 112.656 170.496C113.072 170.325 113.434 170.069 113.744 169.728L114.592 170.72C114.208 171.168 113.728 171.509 113.152 171.744C112.586 171.979 111.952 172.096 111.248 172.096ZM117.269 172V160.128H118.805V172H117.269ZM121.737 172V160.128H123.273V172H121.737ZM130.727 172V162.768C130.727 161.936 130.967 161.275 131.447 160.784C131.938 160.283 132.631 160.032 133.527 160.032C133.858 160.032 134.172 160.075 134.471 160.16C134.78 160.235 135.042 160.357 135.255 160.528L134.791 161.696C134.631 161.568 134.45 161.472 134.247 161.408C134.044 161.333 133.831 161.296 133.607 161.296C133.159 161.296 132.818 161.424 132.583 161.68C132.348 161.925 132.231 162.293 132.231 162.784V163.92L132.263 164.624V172H130.727ZM129.287 164.784V163.52H134.695V164.784H129.287ZM136.144 172V163.52H137.616V165.824L137.472 165.248C137.706 164.661 138.101 164.213 138.656 163.904C139.21 163.595 139.893 163.44 140.704 163.44V164.928C140.64 164.917 140.576 164.912 140.512 164.912C140.458 164.912 140.405 164.912 140.352 164.912C139.53 164.912 138.88 165.157 138.4 165.648C137.92 166.139 137.68 166.848 137.68 167.776V172H136.144ZM146.151 172.096C145.297 172.096 144.54 171.909 143.879 171.536C143.217 171.163 142.695 170.651 142.311 170C141.927 169.339 141.735 168.592 141.735 167.76C141.735 166.917 141.927 166.171 142.311 165.52C142.695 164.869 143.217 164.363 143.879 164C144.54 163.627 145.297 163.44 146.151 163.44C146.993 163.44 147.745 163.627 148.407 164C149.079 164.363 149.601 164.869 149.975 165.52C150.359 166.16 150.551 166.907 150.551 167.76C150.551 168.603 150.359 169.349 149.975 170C149.601 170.651 149.079 171.163 148.407 171.536C147.745 171.909 146.993 172.096 146.151 172.096ZM146.151 170.752C146.695 170.752 147.18 170.629 147.607 170.384C148.044 170.139 148.385 169.792 148.631 169.344C148.876 168.885 148.999 168.357 148.999 167.76C148.999 167.152 148.876 166.629 148.631 166.192C148.385 165.744 148.044 165.397 147.607 165.152C147.18 164.907 146.695 164.784 146.151 164.784C145.607 164.784 145.121 164.907 144.695 165.152C144.268 165.397 143.927 165.744 143.671 166.192C143.415 166.629 143.287 167.152 143.287 167.76C143.287 168.357 143.415 168.885 143.671 169.344C143.927 169.792 144.268 170.139 144.695 170.384C145.121 170.629 145.607 170.752 146.151 170.752ZM163.283 163.44C163.965 163.44 164.568 163.573 165.091 163.84C165.613 164.107 166.019 164.512 166.307 165.056C166.605 165.6 166.755 166.288 166.755 167.12V172H165.219V167.296C165.219 166.475 165.027 165.856 164.643 165.44C164.259 165.024 163.72 164.816 163.027 164.816C162.515 164.816 162.067 164.923 161.683 165.136C161.299 165.349 161 165.664 160.787 166.08C160.584 166.496 160.483 167.013 160.483 167.632V172H158.947V167.296C158.947 166.475 158.755 165.856 158.371 165.44C157.997 165.024 157.459 164.816 156.755 164.816C156.253 164.816 155.811 164.923 155.427 165.136C155.043 165.349 154.744 165.664 154.531 166.08C154.317 166.496 154.211 167.013 154.211 167.632V172H152.675V163.52H154.147V165.776L153.907 165.2C154.173 164.645 154.584 164.213 155.139 163.904C155.693 163.595 156.339 163.44 157.075 163.44C157.885 163.44 158.584 163.643 159.171 164.048C159.757 164.443 160.141 165.045 160.323 165.856L159.699 165.6C159.955 164.949 160.403 164.427 161.043 164.032C161.683 163.637 162.429 163.44 163.283 163.44ZM176.79 172.096C175.937 172.096 175.275 171.867 174.806 171.408C174.337 170.949 174.102 170.293 174.102 169.44V161.664H175.638V169.376C175.638 169.835 175.75 170.187 175.974 170.432C176.209 170.677 176.539 170.8 176.966 170.8C177.446 170.8 177.846 170.667 178.166 170.4L178.646 171.504C178.411 171.707 178.129 171.856 177.798 171.952C177.478 172.048 177.142 172.096 176.79 172.096ZM172.662 164.784V163.52H178.07V164.784H172.662ZM185.031 163.44C185.724 163.44 186.332 163.573 186.855 163.84C187.388 164.107 187.804 164.512 188.103 165.056C188.402 165.6 188.551 166.288 188.551 167.12V172H187.015V167.296C187.015 166.475 186.812 165.856 186.407 165.44C186.012 165.024 185.452 164.816 184.727 164.816C184.183 164.816 183.708 164.923 183.303 165.136C182.898 165.349 182.583 165.664 182.359 166.08C182.146 166.496 182.039 167.013 182.039 167.632V172H180.503V160.128H182.039V165.808L181.735 165.2C182.012 164.645 182.439 164.213 183.015 163.904C183.591 163.595 184.263 163.44 185.031 163.44ZM195.17 172.096C194.263 172.096 193.463 171.909 192.77 171.536C192.087 171.163 191.554 170.651 191.17 170C190.796 169.349 190.61 168.603 190.61 167.76C190.61 166.917 190.791 166.171 191.154 165.52C191.527 164.869 192.034 164.363 192.674 164C193.324 163.627 194.055 163.44 194.866 163.44C195.687 163.44 196.412 163.621 197.042 163.984C197.671 164.347 198.162 164.859 198.514 165.52C198.876 166.171 199.058 166.933 199.058 167.808C199.058 167.872 199.052 167.947 199.042 168.032C199.042 168.117 199.036 168.197 199.026 168.272H191.81V167.168H198.226L197.602 167.552C197.612 167.008 197.5 166.523 197.266 166.096C197.031 165.669 196.706 165.339 196.29 165.104C195.884 164.859 195.41 164.736 194.866 164.736C194.332 164.736 193.858 164.859 193.442 165.104C193.026 165.339 192.7 165.675 192.466 166.112C192.231 166.539 192.114 167.029 192.114 167.584V167.84C192.114 168.405 192.242 168.912 192.498 169.36C192.764 169.797 193.132 170.139 193.602 170.384C194.071 170.629 194.61 170.752 195.218 170.752C195.719 170.752 196.172 170.667 196.578 170.496C196.994 170.325 197.356 170.069 197.666 169.728L198.514 170.72C198.13 171.168 197.65 171.509 197.074 171.744C196.508 171.979 195.874 172.096 195.17 172.096ZM208.399 172.096C207.546 172.096 206.885 171.867 206.415 171.408C205.946 170.949 205.711 170.293 205.711 169.44V161.664H207.247V169.376C207.247 169.835 207.359 170.187 207.583 170.432C207.818 170.677 208.149 170.8 208.575 170.8C209.055 170.8 209.455 170.667 209.775 170.4L210.255 171.504C210.021 171.707 209.738 171.856 209.407 171.952C209.087 172.048 208.751 172.096 208.399 172.096ZM204.271 164.784V163.52H209.679V164.784H204.271ZM212.112 172V163.52H213.584V165.824L213.44 165.248C213.675 164.661 214.07 164.213 214.624 163.904C215.179 163.595 215.862 163.44 216.672 163.44V164.928C216.608 164.917 216.544 164.912 216.48 164.912C216.427 164.912 216.374 164.912 216.32 164.912C215.499 164.912 214.848 165.157 214.368 165.648C213.888 166.139 213.648 166.848 213.648 167.776V172H212.112ZM222.263 172.096C221.357 172.096 220.557 171.909 219.863 171.536C219.181 171.163 218.647 170.651 218.263 170C217.89 169.349 217.703 168.603 217.703 167.76C217.703 166.917 217.885 166.171 218.247 165.52C218.621 164.869 219.127 164.363 219.767 164C220.418 163.627 221.149 163.44 221.959 163.44C222.781 163.44 223.506 163.621 224.135 163.984C224.765 164.347 225.255 164.859 225.607 165.52C225.97 166.171 226.151 166.933 226.151 167.808C226.151 167.872 226.146 167.947 226.135 168.032C226.135 168.117 226.13 168.197 226.119 168.272H218.903V167.168H225.319L224.695 167.552C224.706 167.008 224.594 166.523 224.359 166.096C224.125 165.669 223.799 165.339 223.383 165.104C222.978 164.859 222.503 164.736 221.959 164.736C221.426 164.736 220.951 164.859 220.535 165.104C220.119 165.339 219.794 165.675 219.559 166.112C219.325 166.539 219.207 167.029 219.207 167.584V167.84C219.207 168.405 219.335 168.912 219.591 169.36C219.858 169.797 220.226 170.139 220.695 170.384C221.165 170.629 221.703 170.752 222.311 170.752C222.813 170.752 223.266 170.667 223.671 170.496C224.087 170.325 224.45 170.069 224.759 169.728L225.607 170.72C225.223 171.168 224.743 171.509 224.167 171.744C223.602 171.979 222.967 172.096 222.263 172.096ZM232.06 172.096C231.153 172.096 230.353 171.909 229.66 171.536C228.977 171.163 228.444 170.651 228.06 170C227.687 169.349 227.5 168.603 227.5 167.76C227.5 166.917 227.681 166.171 228.044 165.52C228.417 164.869 228.924 164.363 229.564 164C230.215 163.627 230.945 163.44 231.756 163.44C232.577 163.44 233.303 163.621 233.932 163.984C234.561 164.347 235.052 164.859 235.404 165.52C235.767 166.171 235.948 166.933 235.948 167.808C235.948 167.872 235.943 167.947 235.932 168.032C235.932 168.117 235.927 168.197 235.916 168.272H228.7V167.168H235.116L234.492 167.552C234.503 167.008 234.391 166.523 234.156 166.096C233.921 165.669 233.596 165.339 233.18 165.104C232.775 164.859 232.3 164.736 231.756 164.736C231.223 164.736 230.748 164.859 230.332 165.104C229.916 165.339 229.591 165.675 229.356 166.112C229.121 166.539 229.004 167.029 229.004 167.584V167.84C229.004 168.405 229.132 168.912 229.388 169.36C229.655 169.797 230.023 170.139 230.492 170.384C230.961 170.629 231.5 170.752 232.108 170.752C232.609 170.752 233.063 170.667 233.468 170.496C233.884 170.325 234.247 170.069 234.556 169.728L235.404 170.72C235.02 171.168 234.54 171.509 233.964 171.744C233.399 171.979 232.764 172.096 232.06 172.096ZM241.834 168.272V166.944H246.138V168.272H241.834ZM46.4473 192.128C45.594 192.128 44.8046 191.989 44.0793 191.712C43.3646 191.424 42.7406 191.024 42.2073 190.512C41.6846 189.989 41.274 189.381 40.9753 188.688C40.6766 187.995 40.5273 187.232 40.5273 186.4C40.5273 185.568 40.6766 184.805 40.9753 184.112C41.274 183.419 41.69 182.816 42.2233 182.304C42.7566 181.781 43.3806 181.381 44.0953 181.104C44.8206 180.816 45.61 180.672 46.4633 180.672C47.3273 180.672 48.122 180.821 48.8473 181.12C49.5833 181.408 50.2073 181.84 50.7193 182.416L49.6793 183.424C49.2526 182.976 48.7726 182.645 48.2393 182.432C47.706 182.208 47.1353 182.096 46.5273 182.096C45.898 182.096 45.3113 182.203 44.7673 182.416C44.234 182.629 43.77 182.928 43.3753 183.312C42.9806 183.696 42.6713 184.155 42.4473 184.688C42.234 185.211 42.1273 185.781 42.1273 186.4C42.1273 187.019 42.234 187.595 42.4473 188.128C42.6713 188.651 42.9806 189.104 43.3753 189.488C43.77 189.872 44.234 190.171 44.7673 190.384C45.3113 190.597 45.898 190.704 46.5273 190.704C47.1353 190.704 47.706 190.597 48.2393 190.384C48.7726 190.16 49.2526 189.819 49.6793 189.36L50.7193 190.368C50.2073 190.944 49.5833 191.381 48.8473 191.68C48.122 191.979 47.322 192.128 46.4473 192.128ZM62.7566 191.28V184.864H59.0766L58.9966 186.496C58.9752 187.029 58.9379 187.547 58.8846 188.048C58.8419 188.539 58.7672 188.992 58.6606 189.408C58.5646 189.824 58.4206 190.165 58.2286 190.432C58.0366 190.699 57.7806 190.864 57.4606 190.928L55.9406 190.656C56.2712 190.667 56.5379 190.56 56.7406 190.336C56.9432 190.101 57.0979 189.781 57.2046 189.376C57.3219 188.971 57.4072 188.512 57.4606 188C57.5139 187.477 57.5566 186.939 57.5886 186.384L57.7166 183.52H64.2926V191.28H62.7566ZM55.6046 193.968V190.656H65.5886V193.968H64.1486V192H57.0606V193.968H55.6046ZM71.3656 192.096C70.4589 192.096 69.6589 191.909 68.9656 191.536C68.2829 191.163 67.7496 190.651 67.3656 190C66.9922 189.349 66.8056 188.603 66.8056 187.76C66.8056 186.917 66.9869 186.171 67.3496 185.52C67.7229 184.869 68.2296 184.363 68.8696 184C69.5202 183.627 70.2509 183.44 71.0616 183.44C71.8829 183.44 72.6082 183.621 73.2376 183.984C73.8669 184.347 74.3576 184.859 74.7096 185.52C75.0722 186.171 75.2536 186.933 75.2536 187.808C75.2536 187.872 75.2482 187.947 75.2376 188.032C75.2376 188.117 75.2322 188.197 75.2216 188.272H68.0056V187.168H74.4216L73.7976 187.552C73.8082 187.008 73.6962 186.523 73.4616 186.096C73.2269 185.669 72.9016 185.339 72.4856 185.104C72.0802 184.859 71.6056 184.736 71.0616 184.736C70.5282 184.736 70.0536 184.859 69.6376 185.104C69.2216 185.339 68.8962 185.675 68.6616 186.112C68.4269 186.539 68.3096 187.029 68.3096 187.584V187.84C68.3096 188.405 68.4376 188.912 68.6936 189.36C68.9602 189.797 69.3282 190.139 69.7976 190.384C70.2669 190.629 70.8056 190.752 71.4136 190.752C71.9149 190.752 72.3682 190.667 72.7736 190.496C73.1896 190.325 73.5522 190.069 73.8616 189.728L74.7096 190.72C74.3256 191.168 73.8456 191.509 73.2696 191.744C72.7042 191.979 72.0696 192.096 71.3656 192.096ZM82.1324 192.096C81.4284 192.096 80.7831 191.936 80.1964 191.616C79.6204 191.285 79.1564 190.8 78.8044 190.16C78.4631 189.52 78.2924 188.72 78.2924 187.76C78.2924 186.8 78.4578 186 78.7884 185.36C79.1298 184.72 79.5884 184.24 80.1644 183.92C80.7511 183.6 81.4071 183.44 82.1324 183.44C82.9644 183.44 83.7004 183.621 84.3404 183.984C84.9804 184.347 85.4871 184.853 85.8604 185.504C86.2338 186.144 86.4204 186.896 86.4204 187.76C86.4204 188.624 86.2338 189.381 85.8604 190.032C85.4871 190.683 84.9804 191.189 84.3404 191.552C83.7004 191.915 82.9644 192.096 82.1324 192.096ZM77.6364 195.104V183.52H79.1084V185.808L79.0124 187.776L79.1724 189.744V195.104H77.6364ZM82.0044 190.752C82.5484 190.752 83.0338 190.629 83.4604 190.384C83.8978 190.139 84.2391 189.792 84.4844 189.344C84.7404 188.885 84.8684 188.357 84.8684 187.76C84.8684 187.152 84.7404 186.629 84.4844 186.192C84.2391 185.744 83.8978 185.397 83.4604 185.152C83.0338 184.907 82.5484 184.784 82.0044 184.784C81.4711 184.784 80.9858 184.907 80.5484 185.152C80.1218 185.397 79.7804 185.744 79.5244 186.192C79.2791 186.629 79.1564 187.152 79.1564 187.76C79.1564 188.357 79.2791 188.885 79.5244 189.344C79.7804 189.792 80.1218 190.139 80.5484 190.384C80.9858 190.629 81.4711 190.752 82.0044 190.752ZM92.4281 192.096C91.5214 192.096 90.7214 191.909 90.0281 191.536C89.3454 191.163 88.8121 190.651 88.4281 190C88.0547 189.349 87.8681 188.603 87.8681 187.76C87.8681 186.917 88.0494 186.171 88.4121 185.52C88.7854 184.869 89.2921 184.363 89.9321 184C90.5827 183.627 91.3134 183.44 92.1241 183.44C92.9454 183.44 93.6707 183.621 94.3001 183.984C94.9294 184.347 95.4201 184.859 95.7721 185.52C96.1347 186.171 96.3161 186.933 96.3161 187.808C96.3161 187.872 96.3107 187.947 96.3001 188.032C96.3001 188.117 96.2947 188.197 96.2841 188.272H89.0681V187.168H95.4841L94.8601 187.552C94.8707 187.008 94.7587 186.523 94.5241 186.096C94.2894 185.669 93.9641 185.339 93.5481 185.104C93.1427 184.859 92.6681 184.736 92.1241 184.736C91.5907 184.736 91.1161 184.859 90.7001 185.104C90.2841 185.339 89.9587 185.675 89.7241 186.112C89.4894 186.539 89.3721 187.029 89.3721 187.584V187.84C89.3721 188.405 89.5001 188.912 89.7561 189.36C90.0227 189.797 90.3907 190.139 90.8601 190.384C91.3294 190.629 91.8681 190.752 92.4761 190.752C92.9774 190.752 93.4307 190.667 93.8361 190.496C94.2521 190.325 94.6147 190.069 94.9241 189.728L95.7721 190.72C95.3881 191.168 94.9081 191.509 94.3321 191.744C93.7667 191.979 93.1321 192.096 92.4281 192.096ZM98.6989 192V183.52H102.635C103.627 183.52 104.406 183.712 104.971 184.096C105.547 184.469 105.835 185.003 105.835 185.696C105.835 186.389 105.563 186.928 105.019 187.312C104.486 187.685 103.776 187.872 102.891 187.872L103.131 187.456C104.144 187.456 104.896 187.643 105.387 188.016C105.878 188.389 106.123 188.939 106.123 189.664C106.123 190.4 105.846 190.976 105.291 191.392C104.747 191.797 103.91 192 102.779 192H98.6989ZM100.203 190.816H102.667C103.307 190.816 103.787 190.72 104.107 190.528C104.427 190.325 104.587 190.005 104.587 189.568C104.587 189.12 104.438 188.795 104.139 188.592C103.851 188.379 103.392 188.272 102.763 188.272H100.203V190.816ZM100.203 187.168H102.507C103.094 187.168 103.536 187.061 103.835 186.848C104.144 186.624 104.299 186.315 104.299 185.92C104.299 185.515 104.144 185.211 103.835 185.008C103.536 184.805 103.094 184.704 102.507 184.704H100.203V187.168ZM113.727 192V190.208L113.647 189.872V186.816C113.647 186.165 113.455 185.664 113.071 185.312C112.698 184.949 112.132 184.768 111.375 184.768C110.874 184.768 110.383 184.853 109.903 185.024C109.423 185.184 109.018 185.403 108.687 185.68L108.047 184.528C108.484 184.176 109.007 183.909 109.615 183.728C110.234 183.536 110.879 183.44 111.551 183.44C112.714 183.44 113.61 183.723 114.239 184.288C114.868 184.853 115.183 185.717 115.183 186.88V192H113.727ZM110.943 192.096C110.314 192.096 109.759 191.989 109.279 191.776C108.81 191.563 108.447 191.269 108.191 190.896C107.935 190.512 107.807 190.08 107.807 189.6C107.807 189.141 107.914 188.725 108.127 188.352C108.351 187.979 108.708 187.68 109.199 187.456C109.7 187.232 110.372 187.12 111.215 187.12H113.903V188.224H111.279C110.511 188.224 109.994 188.352 109.727 188.608C109.46 188.864 109.327 189.173 109.327 189.536C109.327 189.952 109.492 190.288 109.823 190.544C110.154 190.789 110.612 190.912 111.199 190.912C111.775 190.912 112.276 190.784 112.703 190.528C113.14 190.272 113.455 189.899 113.647 189.408L113.951 190.464C113.748 190.965 113.391 191.365 112.879 191.664C112.367 191.952 111.722 192.096 110.943 192.096ZM122.678 195.2C122.272 195.2 121.878 195.131 121.494 194.992C121.11 194.864 120.779 194.672 120.502 194.416L121.158 193.264C121.371 193.467 121.606 193.621 121.862 193.728C122.118 193.835 122.39 193.888 122.678 193.888C123.051 193.888 123.36 193.792 123.606 193.6C123.851 193.408 124.08 193.067 124.294 192.576L124.822 191.408L124.982 191.216L128.31 183.52H129.814L125.702 192.848C125.456 193.445 125.179 193.915 124.87 194.256C124.571 194.597 124.24 194.837 123.878 194.976C123.515 195.125 123.115 195.2 122.678 195.2ZM124.694 192.272L120.822 183.52H122.422L125.718 191.072L124.694 192.272ZM131.386 192V183.52H139.242V192H137.706V184.48L138.074 184.864H132.554L132.922 184.48V192H131.386ZM147.415 192V190.208L147.335 189.872V186.816C147.335 186.165 147.143 185.664 146.759 185.312C146.385 184.949 145.82 184.768 145.063 184.768C144.561 184.768 144.071 184.853 143.591 185.024C143.111 185.184 142.705 185.403 142.375 185.68L141.735 184.528C142.172 184.176 142.695 183.909 143.303 183.728C143.921 183.536 144.567 183.44 145.239 183.44C146.401 183.44 147.297 183.723 147.927 184.288C148.556 184.853 148.871 185.717 148.871 186.88V192H147.415ZM144.631 192.096C144.001 192.096 143.447 191.989 142.967 191.776C142.497 191.563 142.135 191.269 141.879 190.896C141.623 190.512 141.495 190.08 141.495 189.6C141.495 189.141 141.601 188.725 141.815 188.352C142.039 187.979 142.396 187.68 142.887 187.456C143.388 187.232 144.06 187.12 144.903 187.12H147.591V188.224H144.967C144.199 188.224 143.681 188.352 143.415 188.608C143.148 188.864 143.015 189.173 143.015 189.536C143.015 189.952 143.18 190.288 143.511 190.544C143.841 190.789 144.3 190.912 144.887 190.912C145.463 190.912 145.964 190.784 146.391 190.528C146.828 190.272 147.143 189.899 147.335 189.408L147.639 190.464C147.436 190.965 147.079 191.365 146.567 191.664C146.055 191.952 145.409 192.096 144.631 192.096ZM150.228 191.984L150.324 190.688C150.399 190.699 150.468 190.709 150.532 190.72C150.596 190.731 150.655 190.736 150.708 190.736C151.05 190.736 151.316 190.619 151.508 190.384C151.711 190.149 151.86 189.84 151.956 189.456C152.052 189.061 152.122 188.619 152.164 188.128C152.207 187.637 152.239 187.147 152.26 186.656L152.404 183.52H158.916V192H157.38V184.416L157.748 184.864H153.396L153.748 184.4L153.636 186.752C153.604 187.499 153.546 188.197 153.46 188.848C153.375 189.499 153.242 190.069 153.06 190.56C152.89 191.051 152.65 191.435 152.34 191.712C152.042 191.989 151.652 192.128 151.172 192.128C151.034 192.128 150.884 192.112 150.724 192.08C150.575 192.059 150.41 192.027 150.228 191.984ZM165.518 192.096C164.665 192.096 163.908 191.909 163.246 191.536C162.585 191.163 162.062 190.651 161.678 190C161.294 189.339 161.102 188.592 161.102 187.76C161.102 186.917 161.294 186.171 161.678 185.52C162.062 184.869 162.585 184.363 163.246 184C163.908 183.627 164.665 183.44 165.518 183.44C166.361 183.44 167.113 183.627 167.774 184C168.446 184.363 168.969 184.869 169.342 185.52C169.726 186.16 169.918 186.907 169.918 187.76C169.918 188.603 169.726 189.349 169.342 190C168.969 190.651 168.446 191.163 167.774 191.536C167.113 191.909 166.361 192.096 165.518 192.096ZM165.518 190.752C166.062 190.752 166.548 190.629 166.974 190.384C167.412 190.139 167.753 189.792 167.998 189.344C168.244 188.885 168.366 188.357 168.366 187.76C168.366 187.152 168.244 186.629 167.998 186.192C167.753 185.744 167.412 185.397 166.974 185.152C166.548 184.907 166.062 184.784 165.518 184.784C164.974 184.784 164.489 184.907 164.062 185.152C163.636 185.397 163.294 185.744 163.038 186.192C162.782 186.629 162.654 187.152 162.654 187.76C162.654 188.357 162.782 188.885 163.038 189.344C163.294 189.792 163.636 190.139 164.062 190.384C164.489 190.629 164.974 190.752 165.518 190.752ZM181.857 192V189.024L182.097 189.312H179.393C178.263 189.312 177.377 189.072 176.737 188.592C176.108 188.112 175.793 187.413 175.793 186.496C175.793 185.515 176.129 184.773 176.801 184.272C177.484 183.771 178.391 183.52 179.521 183.52H183.233V192H181.857ZM175.713 192L178.017 188.752H179.601L177.361 192H175.713ZM181.857 188.544V184.432L182.097 184.864H179.569C178.865 184.864 178.321 184.997 177.937 185.264C177.553 185.52 177.361 185.947 177.361 186.544C177.361 187.653 178.076 188.208 179.505 188.208H182.097L181.857 188.544ZM190.15 192.128C189.446 192.128 188.822 192.016 188.278 191.792C187.745 191.568 187.286 191.237 186.902 190.8C186.518 190.352 186.225 189.792 186.022 189.12C185.83 188.437 185.734 187.637 185.734 186.72C185.734 185.995 185.798 185.344 185.926 184.768C186.054 184.192 186.236 183.68 186.47 183.232C186.716 182.784 187.014 182.395 187.366 182.064C187.729 181.733 188.134 181.461 188.582 181.248C189.041 181.024 189.542 180.853 190.086 180.736L193.958 179.872L194.182 181.296L190.614 182.064C190.401 182.107 190.145 182.171 189.846 182.256C189.548 182.341 189.244 182.475 188.934 182.656C188.625 182.827 188.337 183.067 188.07 183.376C187.804 183.685 187.59 184.091 187.43 184.592C187.27 185.083 187.19 185.691 187.19 186.416C187.19 186.619 187.196 186.773 187.206 186.88C187.217 186.987 187.228 187.093 187.238 187.2C187.26 187.307 187.276 187.467 187.286 187.68L186.646 187.024C186.817 186.437 187.089 185.925 187.462 185.488C187.836 185.051 188.284 184.715 188.806 184.48C189.34 184.235 189.921 184.112 190.55 184.112C191.34 184.112 192.038 184.283 192.646 184.624C193.265 184.965 193.75 185.435 194.102 186.032C194.454 186.629 194.63 187.312 194.63 188.08C194.63 188.859 194.444 189.557 194.07 190.176C193.708 190.784 193.19 191.264 192.518 191.616C191.846 191.957 191.057 192.128 190.15 192.128ZM190.294 190.848C190.838 190.848 191.318 190.731 191.734 190.496C192.15 190.251 192.476 189.925 192.71 189.52C192.945 189.104 193.062 188.64 193.062 188.128C193.062 187.616 192.945 187.163 192.71 186.768C192.476 186.373 192.15 186.064 191.734 185.84C191.318 185.605 190.828 185.488 190.262 185.488C189.729 185.488 189.249 185.6 188.822 185.824C188.396 186.037 188.065 186.341 187.83 186.736C187.596 187.12 187.478 187.568 187.478 188.08C187.478 188.592 187.596 189.061 187.83 189.488C188.076 189.904 188.406 190.235 188.822 190.48C189.249 190.725 189.74 190.848 190.294 190.848ZM195.353 191.984L195.449 190.688C195.524 190.699 195.593 190.709 195.657 190.72C195.721 190.731 195.78 190.736 195.833 190.736C196.175 190.736 196.441 190.619 196.633 190.384C196.836 190.149 196.985 189.84 197.081 189.456C197.177 189.061 197.247 188.619 197.289 188.128C197.332 187.637 197.364 187.147 197.385 186.656L197.529 183.52H204.041V192H202.505V184.416L202.873 184.864H198.521L198.873 184.4L198.761 186.752C198.729 187.499 198.671 188.197 198.585 188.848C198.5 189.499 198.367 190.069 198.185 190.56C198.015 191.051 197.775 191.435 197.465 191.712C197.167 191.989 196.777 192.128 196.297 192.128C196.159 192.128 196.009 192.112 195.849 192.08C195.7 192.059 195.535 192.027 195.353 191.984ZM210.643 192.096C209.79 192.096 209.033 191.909 208.371 191.536C207.71 191.163 207.187 190.651 206.803 190C206.419 189.339 206.227 188.592 206.227 187.76C206.227 186.917 206.419 186.171 206.803 185.52C207.187 184.869 207.71 184.363 208.371 184C209.033 183.627 209.79 183.44 210.643 183.44C211.486 183.44 212.238 183.627 212.899 184C213.571 184.363 214.094 184.869 214.467 185.52C214.851 186.16 215.043 186.907 215.043 187.76C215.043 188.603 214.851 189.349 214.467 190C214.094 190.651 213.571 191.163 212.899 191.536C212.238 191.909 211.486 192.096 210.643 192.096ZM210.643 190.752C211.187 190.752 211.673 190.629 212.099 190.384C212.537 190.139 212.878 189.792 213.123 189.344C213.369 188.885 213.491 188.357 213.491 187.76C213.491 187.152 213.369 186.629 213.123 186.192C212.878 185.744 212.537 185.397 212.099 185.152C211.673 184.907 211.187 184.784 210.643 184.784C210.099 184.784 209.614 184.907 209.187 185.152C208.761 185.397 208.419 185.744 208.163 186.192C207.907 186.629 207.779 187.152 207.779 187.76C207.779 188.357 207.907 188.885 208.163 189.344C208.419 189.792 208.761 190.139 209.187 190.384C209.614 190.629 210.099 190.752 210.643 190.752ZM223.405 192L220.125 187.872L221.389 187.104L225.213 192H223.405ZM217.261 192V183.52H218.797V192H217.261ZM218.333 188.416V187.104H221.133V188.416H218.333ZM221.517 187.936L220.093 187.744L223.341 183.52H224.989L221.517 187.936ZM230.175 192.096C229.321 192.096 228.564 191.909 227.903 191.536C227.241 191.163 226.719 190.651 226.335 190C225.951 189.339 225.759 188.592 225.759 187.76C225.759 186.917 225.951 186.171 226.335 185.52C226.719 184.869 227.241 184.363 227.903 184C228.564 183.627 229.321 183.44 230.175 183.44C231.017 183.44 231.769 183.627 232.431 184C233.103 184.363 233.625 184.869 233.999 185.52C234.383 186.16 234.575 186.907 234.575 187.76C234.575 188.603 234.383 189.349 233.999 190C233.625 190.651 233.103 191.163 232.431 191.536C231.769 191.909 231.017 192.096 230.175 192.096ZM230.175 190.752C230.719 190.752 231.204 190.629 231.631 190.384C232.068 190.139 232.409 189.792 232.655 189.344C232.9 188.885 233.023 188.357 233.023 187.76C233.023 187.152 232.9 186.629 232.655 186.192C232.409 185.744 232.068 185.397 231.631 185.152C231.204 184.907 230.719 184.784 230.175 184.784C229.631 184.784 229.145 184.907 228.719 185.152C228.292 185.397 227.951 185.744 227.695 186.192C227.439 186.629 227.311 187.152 227.311 187.76C227.311 188.357 227.439 188.885 227.695 189.344C227.951 189.792 228.292 190.139 228.719 190.384C229.145 190.629 229.631 190.752 230.175 190.752Z" fill="black"/>
<rect x="31.5" y="295" width="212" height="41" rx="15" fill="#F7D034"/>
<path d="M106.536 315.856H105.016V314.775H106.475C107.119 314.775 107.641 314.685 108.039 314.503C108.438 314.321 108.728 314.069 108.909 313.747C109.091 313.425 109.182 313.053 109.182 312.631C109.182 312.227 109.082 311.857 108.883 311.523C108.684 311.184 108.376 310.914 107.96 310.715C107.544 310.51 107.008 310.407 106.352 310.407C105.859 310.407 105.414 310.501 105.016 310.688C104.617 310.87 104.301 311.125 104.066 311.453C103.832 311.775 103.715 312.147 103.715 312.569H102.019C102.019 312.024 102.133 311.535 102.361 311.102C102.59 310.662 102.903 310.29 103.302 309.985C103.7 309.675 104.16 309.438 104.682 309.273C105.209 309.109 105.766 309.027 106.352 309.027C107.037 309.027 107.658 309.106 108.215 309.265C108.771 309.417 109.249 309.646 109.647 309.95C110.046 310.255 110.351 310.633 110.562 311.084C110.772 311.535 110.878 312.06 110.878 312.657C110.878 313.097 110.775 313.51 110.57 313.896C110.365 314.283 110.072 314.623 109.691 314.916C109.311 315.209 108.854 315.44 108.32 315.61C107.787 315.774 107.192 315.856 106.536 315.856ZM105.016 315.109H106.536C107.257 315.109 107.898 315.183 108.461 315.329C109.023 315.476 109.498 315.689 109.885 315.971C110.271 316.252 110.564 316.601 110.764 317.017C110.969 317.427 111.071 317.898 111.071 318.432C111.071 319.029 110.954 319.56 110.72 320.022C110.491 320.485 110.166 320.878 109.744 321.2C109.322 321.522 108.821 321.766 108.241 321.93C107.667 322.094 107.037 322.176 106.352 322.176C105.801 322.176 105.256 322.105 104.717 321.965C104.184 321.818 103.7 321.596 103.267 321.297C102.833 320.992 102.484 320.605 102.221 320.137C101.963 319.668 101.834 319.105 101.834 318.449H103.53C103.53 318.877 103.647 319.27 103.882 319.627C104.122 319.984 104.453 320.271 104.875 320.488C105.297 320.699 105.789 320.805 106.352 320.805C106.996 320.805 107.541 320.705 107.986 320.506C108.438 320.301 108.78 320.022 109.015 319.671C109.255 319.313 109.375 318.912 109.375 318.467C109.375 318.074 109.311 317.734 109.182 317.447C109.059 317.154 108.874 316.914 108.628 316.727C108.388 316.539 108.086 316.401 107.723 316.313C107.365 316.22 106.949 316.173 106.475 316.173H105.016V315.109ZM118.665 320.374V315.479C118.665 315.104 118.589 314.778 118.437 314.503C118.29 314.222 118.067 314.005 117.769 313.853C117.47 313.7 117.101 313.624 116.661 313.624C116.251 313.624 115.891 313.694 115.58 313.835C115.275 313.976 115.035 314.16 114.859 314.389C114.689 314.617 114.604 314.863 114.604 315.127H112.979C112.979 314.787 113.066 314.45 113.242 314.116C113.418 313.782 113.67 313.48 113.998 313.211C114.332 312.936 114.73 312.719 115.193 312.561C115.662 312.396 116.184 312.314 116.758 312.314C117.449 312.314 118.059 312.432 118.586 312.666C119.119 312.9 119.535 313.255 119.834 313.729C120.139 314.198 120.291 314.787 120.291 315.496V319.926C120.291 320.242 120.317 320.579 120.37 320.937C120.429 321.294 120.514 321.602 120.625 321.859V322H118.929C118.847 321.812 118.782 321.563 118.735 321.253C118.688 320.937 118.665 320.644 118.665 320.374ZM118.946 316.234L118.964 317.377H117.32C116.857 317.377 116.444 317.415 116.081 317.491C115.718 317.562 115.413 317.67 115.167 317.816C114.921 317.963 114.733 318.147 114.604 318.37C114.476 318.587 114.411 318.842 114.411 319.135C114.411 319.434 114.479 319.706 114.613 319.952C114.748 320.198 114.95 320.395 115.22 320.541C115.495 320.682 115.832 320.752 116.23 320.752C116.729 320.752 117.168 320.646 117.549 320.436C117.93 320.225 118.231 319.967 118.454 319.662C118.683 319.357 118.806 319.062 118.823 318.774L119.518 319.557C119.477 319.803 119.365 320.075 119.184 320.374C119.002 320.673 118.759 320.96 118.454 321.235C118.155 321.505 117.798 321.73 117.382 321.912C116.972 322.088 116.509 322.176 115.993 322.176C115.349 322.176 114.783 322.05 114.297 321.798C113.816 321.546 113.441 321.209 113.172 320.787C112.908 320.359 112.776 319.882 112.776 319.354C112.776 318.845 112.876 318.396 113.075 318.01C113.274 317.617 113.562 317.292 113.937 317.034C114.312 316.771 114.763 316.571 115.29 316.437C115.817 316.302 116.406 316.234 117.057 316.234H118.946ZM124.615 312.49V322H122.989V312.49H124.615ZM130.855 312.49L126.347 317.939H124.07L123.824 316.516H125.688L128.878 312.49H130.855ZM129.106 322L125.608 317.693L126.654 316.516L131.172 322H129.106ZM134.213 314.318V325.656H132.578V312.49H134.072L134.213 314.318ZM140.62 317.166V317.351C140.62 318.042 140.538 318.684 140.374 319.275C140.21 319.861 139.97 320.371 139.653 320.805C139.343 321.238 138.959 321.575 138.502 321.815C138.045 322.056 137.521 322.176 136.929 322.176C136.325 322.176 135.792 322.076 135.329 321.877C134.866 321.678 134.474 321.388 134.151 321.007C133.829 320.626 133.571 320.169 133.378 319.636C133.19 319.103 133.062 318.502 132.991 317.834V316.85C133.062 316.146 133.193 315.517 133.387 314.96C133.58 314.403 133.835 313.929 134.151 313.536C134.474 313.138 134.863 312.836 135.32 312.631C135.777 312.42 136.305 312.314 136.902 312.314C137.5 312.314 138.03 312.432 138.493 312.666C138.956 312.895 139.346 313.223 139.662 313.65C139.979 314.078 140.216 314.591 140.374 315.188C140.538 315.78 140.62 316.439 140.62 317.166ZM138.985 317.351V317.166C138.985 316.691 138.936 316.246 138.836 315.83C138.736 315.408 138.581 315.039 138.37 314.723C138.165 314.4 137.901 314.148 137.579 313.967C137.257 313.779 136.873 313.686 136.428 313.686C136.018 313.686 135.66 313.756 135.355 313.896C135.057 314.037 134.802 314.228 134.591 314.468C134.38 314.702 134.207 314.972 134.072 315.276C133.943 315.575 133.847 315.886 133.782 316.208V318.484C133.899 318.895 134.063 319.281 134.274 319.645C134.485 320.002 134.767 320.292 135.118 320.515C135.47 320.731 135.912 320.84 136.445 320.84C136.885 320.84 137.263 320.749 137.579 320.567C137.901 320.38 138.165 320.125 138.37 319.803C138.581 319.48 138.736 319.111 138.836 318.695C138.936 318.273 138.985 317.825 138.985 317.351ZM144.03 315.76H146.887C147.654 315.76 148.302 315.895 148.829 316.164C149.356 316.428 149.755 316.794 150.024 317.263C150.3 317.726 150.438 318.253 150.438 318.845C150.438 319.284 150.361 319.697 150.209 320.084C150.057 320.465 149.828 320.799 149.523 321.086C149.225 321.373 148.853 321.599 148.407 321.763C147.968 321.921 147.461 322 146.887 322H142.844V312.49H144.47V320.664H146.887C147.355 320.664 147.73 320.579 148.012 320.409C148.293 320.239 148.495 320.02 148.618 319.75C148.741 319.48 148.803 319.199 148.803 318.906C148.803 318.619 148.741 318.338 148.618 318.062C148.495 317.787 148.293 317.559 148.012 317.377C147.73 317.189 147.355 317.096 146.887 317.096H144.03V315.76ZM153.821 312.49V322H152.195V312.49H153.821ZM160.545 312.49V322H158.91V312.49H160.545ZM163.735 312.49V313.809H155.781V312.49H163.735ZM166.671 315.76H169.527C170.295 315.76 170.942 315.895 171.47 316.164C171.997 316.428 172.396 316.794 172.665 317.263C172.94 317.726 173.078 318.253 173.078 318.845C173.078 319.284 173.002 319.697 172.85 320.084C172.697 320.465 172.469 320.799 172.164 321.086C171.865 321.373 171.493 321.599 171.048 321.763C170.608 321.921 170.102 322 169.527 322H165.484V312.49H167.11V320.664H169.527C169.996 320.664 170.371 320.579 170.652 320.409C170.934 320.239 171.136 320.02 171.259 319.75C171.382 319.48 171.443 319.199 171.443 318.906C171.443 318.619 171.382 318.338 171.259 318.062C171.136 317.787 170.934 317.559 170.652 317.377C170.371 317.189 169.996 317.096 169.527 317.096H166.671V315.76Z" fill="#1E2026"/>
</svg>
