<svg width="225" height="44" viewBox="0 0 225 44" fill="none" xmlns="http://www.w3.org/2000/svg">
<path d="M4.44384 35V9.8H13.8758C16.0118 9.8 17.8478 10.148 19.3838 10.844C20.9198 11.516 22.0958 12.5 22.9118 13.796C23.7518 15.068 24.1718 16.616 24.1718 18.44C24.1718 20.216 23.7518 21.752 22.9118 23.048C22.0958 24.32 20.9198 25.304 19.3838 26C17.8478 26.696 16.0118 27.044 13.8758 27.044H5.91984L7.10784 25.784V35H4.44384ZM7.10784 26L5.91984 24.704H13.8038C16.3238 24.704 18.2318 24.164 19.5278 23.084C20.8478 21.98 21.5078 20.432 21.5078 18.44C21.5078 16.424 20.8478 14.864 19.5278 13.76C18.2318 12.656 16.3238 12.104 13.8038 12.104H5.91984L7.10784 10.844V26ZM28.9351 35V16.1H31.3831V21.248L31.1311 20.348C31.6591 18.908 32.5471 17.816 33.7951 17.072C35.0431 16.304 36.5911 15.92 38.4391 15.92V18.404C38.3431 18.404 38.2471 18.404 38.1511 18.404C38.0551 18.38 37.9591 18.368 37.8631 18.368C35.8711 18.368 34.3111 18.98 33.1831 20.204C32.0551 21.404 31.4911 23.12 31.4911 25.352V35H28.9351ZM50.6313 35.18C48.8073 35.18 47.1633 34.772 45.6993 33.956C44.2593 33.116 43.1193 31.976 42.2793 30.536C41.4393 29.072 41.0193 27.404 41.0193 25.532C41.0193 23.636 41.4393 21.968 42.2793 20.528C43.1193 19.088 44.2593 17.96 45.6993 17.144C47.1393 16.328 48.7833 15.92 50.6313 15.92C52.5033 15.92 54.1593 16.328 55.5993 17.144C57.0633 17.96 58.2033 19.088 59.0193 20.528C59.8593 21.968 60.2793 23.636 60.2793 25.532C60.2793 27.404 59.8593 29.072 59.0193 30.536C58.2033 31.976 57.0633 33.116 55.5993 33.956C54.1353 34.772 52.4793 35.18 50.6313 35.18ZM50.6313 32.912C51.9993 32.912 53.2113 32.612 54.2673 32.012C55.3233 31.388 56.1513 30.524 56.7513 29.42C57.3753 28.292 57.6873 26.996 57.6873 25.532C57.6873 24.044 57.3753 22.748 56.7513 21.644C56.1513 20.54 55.3233 19.688 54.2673 19.088C53.2113 18.464 52.0113 18.152 50.6673 18.152C49.3233 18.152 48.1233 18.464 47.0673 19.088C46.0113 19.688 45.1713 20.54 44.5473 21.644C43.9233 22.748 43.6113 24.044 43.6113 25.532C43.6113 26.996 43.9233 28.292 44.5473 29.42C45.1713 30.524 46.0113 31.388 47.0673 32.012C48.1233 32.612 49.3113 32.912 50.6313 32.912ZM62.6896 42.164C61.9216 42.164 61.1896 42.056 60.4936 41.84C59.7736 41.648 59.1736 41.348 58.6936 40.94L59.5936 38.996C60.3616 39.644 61.3456 39.968 62.5456 39.968C63.5536 39.968 64.3216 39.668 64.8496 39.068C65.4016 38.468 65.6776 37.58 65.6776 36.404V16.1H68.2336V36.404C68.2336 38.156 67.7536 39.548 66.7936 40.58C65.8576 41.636 64.4896 42.164 62.6896 42.164ZM66.9736 11.924C66.4456 11.924 66.0016 11.744 65.6416 11.384C65.2816 11.024 65.1016 10.592 65.1016 10.088C65.1016 9.584 65.2816 9.164 65.6416 8.828C66.0016 8.468 66.4456 8.288 66.9736 8.288C67.5016 8.288 67.9456 8.456 68.3056 8.792C68.6656 9.128 68.8456 9.548 68.8456 10.052C68.8456 10.58 68.6656 11.024 68.3056 11.384C67.9696 11.744 67.5256 11.924 66.9736 11.924ZM83.4045 35.18C81.4365 35.18 79.7085 34.772 78.2205 33.956C76.7325 33.116 75.5685 31.976 74.7285 30.536C73.8885 29.072 73.4685 27.404 73.4685 25.532C73.4685 23.66 73.8645 22.004 74.6565 20.564C75.4725 19.124 76.5765 17.996 77.9685 17.18C79.3845 16.34 80.9685 15.92 82.7205 15.92C84.4965 15.92 86.0685 16.328 87.4365 17.144C88.8285 17.936 89.9205 19.064 90.7125 20.528C91.5045 21.968 91.9005 23.636 91.9005 25.532C91.9005 25.652 91.8885 25.784 91.8645 25.928C91.8645 26.048 91.8645 26.18 91.8645 26.324H75.4125V24.416H90.4965L89.4885 25.172C89.4885 23.804 89.1885 22.592 88.5885 21.536C88.0125 20.456 87.2205 19.616 86.2125 19.016C85.2045 18.416 84.0405 18.116 82.7205 18.116C81.4245 18.116 80.2605 18.416 79.2285 19.016C78.1965 19.616 77.3925 20.456 76.8165 21.536C76.2405 22.616 75.9525 23.852 75.9525 25.244V25.64C75.9525 27.08 76.2645 28.352 76.8885 29.456C77.5365 30.536 78.4245 31.388 79.5525 32.012C80.7045 32.612 82.0125 32.912 83.4765 32.912C84.6285 32.912 85.6965 32.708 86.6805 32.3C87.6885 31.892 88.5525 31.268 89.2725 30.428L90.7125 32.084C89.8725 33.092 88.8165 33.86 87.5445 34.388C86.2965 34.916 84.9165 35.18 83.4045 35.18ZM104.951 35.18C103.079 35.18 101.399 34.772 99.9111 33.956C98.4471 33.116 97.2951 31.976 96.4551 30.536C95.6151 29.072 95.1951 27.404 95.1951 25.532C95.1951 23.636 95.6151 21.968 96.4551 20.528C97.2951 19.088 98.4471 17.96 99.9111 17.144C101.399 16.328 103.079 15.92 104.951 15.92C106.559 15.92 108.011 16.232 109.307 16.856C110.603 17.48 111.623 18.416 112.367 19.664L110.459 20.96C109.811 20 109.007 19.292 108.047 18.836C107.087 18.38 106.043 18.152 104.915 18.152C103.571 18.152 102.359 18.464 101.279 19.088C100.199 19.688 99.3471 20.54 98.7231 21.644C98.0991 22.748 97.7871 24.044 97.7871 25.532C97.7871 27.02 98.0991 28.316 98.7231 29.42C99.3471 30.524 100.199 31.388 101.279 32.012C102.359 32.612 103.571 32.912 104.915 32.912C106.043 32.912 107.087 32.684 108.047 32.228C109.007 31.772 109.811 31.076 110.459 30.14L112.367 31.436C111.623 32.66 110.603 33.596 109.307 34.244C108.011 34.868 106.559 35.18 104.951 35.18ZM123.575 35.18C121.799 35.18 120.431 34.7 119.471 33.74C118.511 32.78 118.031 31.424 118.031 29.672V11.924H120.587V29.528C120.587 30.632 120.863 31.484 121.415 32.084C121.991 32.684 122.807 32.984 123.863 32.984C124.991 32.984 125.927 32.66 126.671 32.012L127.571 33.848C127.067 34.304 126.455 34.64 125.735 34.856C125.039 35.072 124.319 35.18 123.575 35.18ZM114.647 18.224V16.1H126.347V18.224H114.647Z" fill="#1E2026"/>
<path d="M137 8C137 5.23858 139.239 3 142 3L165 3V41H142C139.239 41 137 38.7614 137 36V8Z" fill="#FFA7BD"/>
<path d="M148.219 21.034H154.879V22.168H148.219V21.034ZM148.363 26.848H155.941V28H147.031V15.4H155.671V16.552H148.363V26.848Z" fill="#1E2026"/>
<path d="M167 3H195V41H167V3Z" fill="#FEBA8A"/>
<path d="M175.731 28V15.4H176.829L185.523 26.344H184.947V15.4H186.261V28H185.163L176.487 17.056H177.063V28H175.731Z" fill="#1E2026"/>
<path d="M197 3L220 3C222.761 3 225 5.23858 225 8V36C225 38.7614 222.761 41 220 41H197V3Z" fill="#F7D034"/>
<path d="M211.617 28.108C210.657 28.108 209.769 27.952 208.953 27.64C208.149 27.316 207.447 26.866 206.847 26.29C206.259 25.714 205.797 25.036 205.461 24.256C205.137 23.476 204.975 22.624 204.975 21.7C204.975 20.776 205.137 19.924 205.461 19.144C205.797 18.364 206.265 17.686 206.865 17.11C207.465 16.534 208.167 16.09 208.971 15.778C209.787 15.454 210.675 15.292 211.635 15.292C212.595 15.292 213.471 15.442 214.263 15.742C215.067 16.042 215.751 16.498 216.315 17.11L215.487 17.956C214.959 17.428 214.377 17.05 213.741 16.822C213.105 16.594 212.421 16.48 211.689 16.48C210.909 16.48 210.189 16.612 209.529 16.876C208.881 17.128 208.311 17.494 207.819 17.974C207.339 18.442 206.961 18.994 206.685 19.63C206.421 20.254 206.289 20.944 206.289 21.7C206.289 22.444 206.421 23.134 206.685 23.77C206.961 24.406 207.339 24.964 207.819 25.444C208.311 25.912 208.881 26.278 209.529 26.542C210.189 26.794 210.903 26.92 211.671 26.92C212.391 26.92 213.069 26.812 213.705 26.596C214.353 26.38 214.947 26.014 215.487 25.498L216.243 26.506C215.643 27.034 214.941 27.436 214.137 27.712C213.333 27.976 212.493 28.108 211.617 28.108ZM214.965 26.344V21.7H216.243V26.506L214.965 26.344Z" fill="#1E2026"/>
</svg>
