<svg width="80" height="80" viewBox="0 0 80 80" fill="none" xmlns="http://www.w3.org/2000/svg">
<g id="Icon / Refresh">
<path id="Vector" d="M69.0234 46.25C69.0234 46.3802 69.0104 46.4714 68.9844 46.5234C67.3177 53.5026 63.8281 59.1602 58.5156 63.4961C53.2031 67.832 46.9792 70 39.8437 70C36.0417 70 32.3633 69.2839 28.8086 67.8516C25.2539 66.4193 22.0833 64.375 19.2969 61.7187L14.2578 66.7578C13.763 67.2526 13.1771 67.5 12.5 67.5C11.8229 67.5 11.237 67.2526 10.7422 66.7578C10.2474 66.263 10 65.6771 10 65V47.5C10 46.8229 10.2474 46.237 10.7422 45.7422C11.237 45.2474 11.8229 45 12.5 45H30C30.6771 45 31.263 45.2474 31.7578 45.7422C32.2526 46.237 32.5 46.8229 32.5 47.5C32.5 48.1771 32.2526 48.763 31.7578 49.2578L26.4062 54.6094C28.2552 56.3281 30.3516 57.6562 32.6953 58.5938C35.0391 59.5312 37.474 60 40 60C43.4896 60 46.7448 59.1536 49.7656 57.4609C52.7865 55.7682 55.2083 53.4375 57.0312 50.4688C57.3177 50.026 58.0078 48.5026 59.1016 45.8984C59.3099 45.2995 59.7005 45 60.2734 45H67.7734C68.112 45 68.4049 45.1237 68.6523 45.3711C68.8997 45.6185 69.0234 45.9115 69.0234 46.25ZM70 15V32.5C70 33.1771 69.7526 33.763 69.2578 34.2578C68.763 34.7526 68.1771 35 67.5 35H50C49.3229 35 48.737 34.7526 48.2422 34.2578C47.7474 33.763 47.5 33.1771 47.5 32.5C47.5 31.8229 47.7474 31.237 48.2422 30.7422L53.6328 25.3516C49.7786 21.7839 45.2344 20 40 20C36.5104 20 33.2552 20.8464 30.2344 22.5391C27.2135 24.2318 24.7917 26.5625 22.9688 29.5312C22.6823 29.974 21.9922 31.4974 20.8984 34.1016C20.6901 34.7005 20.2995 35 19.7266 35H11.9531C11.6146 35 11.3216 34.8763 11.0742 34.6289C10.8268 34.3815 10.7031 34.0885 10.7031 33.75V33.4766C12.3958 26.4974 15.9115 20.8398 21.25 16.5039C26.5885 12.168 32.8385 10 40 10C43.8021 10 47.5 10.7227 51.0938 12.168C54.6875 13.6133 57.8776 15.651 60.6641 18.2812L65.7422 13.2422C66.237 12.7474 66.8229 12.5 67.5 12.5C68.1771 12.5 68.763 12.7474 69.2578 13.2422C69.7526 13.737 70 14.3229 70 15Z" fill="#1E2026"/>
</g>
</svg>
