<svg width="24" height="24" viewBox="0 0 24 24" fill="none" xmlns="http://www.w3.org/2000/svg">
<g id="tel">
<path id="Vector" fill-rule="evenodd" clip-rule="evenodd" d="M5.12109 3.57392C5.31793 3.37738 5.55429 3.22491 5.81451 3.12663C6.07473 3.02834 6.35287 2.98648 6.6305 3.00382C6.90812 3.02116 7.17889 3.0973 7.42486 3.2272C7.67083 3.3571 7.88639 3.53779 8.05725 3.75729L10.0766 6.35146C10.4467 6.82732 10.5772 7.44718 10.4309 8.03216L9.81557 10.4958C9.78375 10.6234 9.78547 10.7571 9.82056 10.8838C9.85564 11.0106 9.9229 11.1261 10.0158 11.2192L12.7798 13.9832C12.873 14.0763 12.9887 14.1437 13.1157 14.1788C13.2427 14.2139 13.3766 14.2155 13.5043 14.1835L15.9669 13.5681C16.2556 13.4959 16.5569 13.4903 16.848 13.5517C17.1392 13.6131 17.4126 13.7399 17.6476 13.9225L20.2417 15.9407C21.1743 16.6663 21.2598 18.0443 20.4251 18.8779L19.2619 20.0412C18.4294 20.8736 17.1852 21.2392 16.0254 20.8309C13.0568 19.7864 10.3615 18.0869 8.13937 15.8585C5.91114 13.6368 4.21168 10.9418 3.16702 7.97366C2.75979 6.81495 3.1254 5.56961 3.95787 4.73714L5.12109 3.57392Z" fill="#1E2026"/>
</g>
</svg>
