<svg width="80" height="80" viewBox="0 0 80 80" fill="none" xmlns="http://www.w3.org/2000/svg">
<g id="Icon / time">
<path id="Vector" d="M40 10C56.569 10 70 23.431 70 40C70 56.569 56.569 70 40 70C23.431 70 10 56.569 10 40C10 23.431 23.431 10 40 10ZM37.21 26.743C36.6546 26.743 36.122 26.9636 35.7293 27.3563C35.3366 27.749 35.116 28.2816 35.116 28.837V45.58C35.116 46.738 36.052 47.674 37.21 47.674H53.953C54.2345 47.6847 54.5152 47.6384 54.7783 47.5381C55.0415 47.4377 55.2817 47.2853 55.4846 47.0899C55.6875 46.8946 55.8489 46.6603 55.9592 46.4011C56.0694 46.1419 56.1262 45.8632 56.1262 45.5815C56.1262 45.2998 56.0694 45.0211 55.9592 44.7619C55.8489 44.5027 55.6875 44.2684 55.4846 44.0731C55.2817 43.8777 55.0415 43.7253 54.7783 43.6249C54.5152 43.5246 54.2345 43.4783 53.953 43.489H39.301V28.837C39.301 28.2822 39.0808 27.75 38.6887 27.3574C38.2967 26.9648 37.7648 26.7438 37.21 26.743Z" fill="#1E2026"/>
</g>
</svg>
