<svg width="80" height="80" viewBox="0 0 80 80" fill="none" xmlns="http://www.w3.org/2000/svg">
<g id="Icon / Watch">
<path id="Vector" d="M21.25 16C18.2663 16 15.4048 17.2801 13.295 19.5587C11.1853 21.8373 10 24.9277 10 28.15V52.45C10 55.6724 11.1853 58.7628 13.295 61.0414C15.4048 63.32 18.2663 64.6 21.25 64.6H58.75C61.7337 64.6 64.5952 63.32 66.705 61.0414C68.8147 58.7628 70 55.6724 70 52.45V28.15C70 24.9277 68.8147 21.8373 66.705 19.5587C64.5952 17.2801 61.7337 16 58.75 16H21.25ZM60.625 24.1C61.1223 24.1 61.5992 24.3134 61.9508 24.6931C62.3025 25.0729 62.5 25.588 62.5 26.125V30.175C62.5 30.7121 62.3025 31.2272 61.9508 31.6069C61.5992 31.9867 61.1223 32.2 60.625 32.2C60.1277 32.2 59.6508 31.9867 59.2992 31.6069C58.9475 31.2272 58.75 30.7121 58.75 30.175V26.125C58.75 25.588 58.9475 25.0729 59.2992 24.6931C59.6508 24.3134 60.1277 24.1 60.625 24.1ZM58.75 50.425C58.75 49.888 58.9475 49.3729 59.2992 48.9931C59.6508 48.6134 60.1277 48.4 60.625 48.4C61.1223 48.4 61.5992 48.6134 61.9508 48.9931C62.3025 49.3729 62.5 49.888 62.5 50.425V54.475C62.5 55.0121 62.3025 55.5272 61.9508 55.9069C61.5992 56.2867 61.1223 56.5 60.625 56.5C60.1277 56.5 59.6508 56.2867 59.2992 55.9069C58.9475 55.5272 58.75 55.0121 58.75 54.475V50.425ZM60.625 36.25C61.1223 36.25 61.5992 36.4634 61.9508 36.8431C62.3025 37.2229 62.5 37.738 62.5 38.275V42.325C62.5 42.8621 62.3025 43.3772 61.9508 43.7569C61.5992 44.1367 61.1223 44.35 60.625 44.35C60.1277 44.35 59.6508 44.1367 59.2992 43.7569C58.9475 43.3772 58.75 42.8621 58.75 42.325V38.275C58.75 37.738 58.9475 37.2229 59.2992 36.8431C59.6508 36.4634 60.1277 36.25 60.625 36.25ZM17.5 26.125C17.5 25.588 17.6975 25.0729 18.0492 24.6931C18.4008 24.3134 18.8777 24.1 19.375 24.1C19.8723 24.1 20.3492 24.3134 20.7008 24.6931C21.0525 25.0729 21.25 25.588 21.25 26.125V30.175C21.25 30.7121 21.0525 31.2272 20.7008 31.6069C20.3492 31.9867 19.8723 32.2 19.375 32.2C18.8777 32.2 18.4008 31.9867 18.0492 31.6069C17.6975 31.2272 17.5 30.7121 17.5 30.175V26.125ZM19.375 48.4C19.8723 48.4 20.3492 48.6134 20.7008 48.9931C21.0525 49.3729 21.25 49.888 21.25 50.425V54.475C21.25 55.0121 21.0525 55.5272 20.7008 55.9069C20.3492 56.2867 19.8723 56.5 19.375 56.5C18.8777 56.5 18.4008 56.2867 18.0492 55.9069C17.6975 55.5272 17.5 55.0121 17.5 54.475V50.425C17.5 49.888 17.6975 49.3729 18.0492 48.9931C18.4008 48.6134 18.8777 48.4 19.375 48.4ZM17.5 38.275C17.5 37.738 17.6975 37.2229 18.0492 36.8431C18.4008 36.4634 18.8777 36.25 19.375 36.25C19.8723 36.25 20.3492 36.4634 20.7008 36.8431C21.0525 37.2229 21.25 37.738 21.25 38.275V42.325C21.25 42.8621 21.0525 43.3772 20.7008 43.7569C20.3492 44.1367 19.8723 44.35 19.375 44.35C18.8777 44.35 18.4008 44.1367 18.0492 43.7569C17.6975 43.3772 17.5 42.8621 17.5 42.325V38.275ZM32.5 32.7103C32.5 30.7542 34.225 29.5392 35.605 30.5233L46.63 38.433C47.7925 39.2673 47.7925 41.3328 46.63 42.1671L35.605 50.0767C34.2288 51.0609 32.5 49.8459 32.5 47.8897V32.7103Z" fill="#1E2026"/>
</g>
</svg>
